<mxfile host="app.diagrams.net" modified="2022-03-08T16:20:58.112Z" agent="5.0 (Windows NT 10.0; Win64; x64) AppleWebKit/537.36 (KHTML, like Gecko) Chrome/99.0.4844.51 Safari/537.36" etag="kVGSrvePAzO3SzU11P75" version="17.0.0" type="github">
  <diagram id="DdAvXdSHw_Mc-_7EVutD" name="Page-1">
    <mxGraphModel dx="633" dy="393" grid="1" gridSize="10" guides="1" tooltips="1" connect="1" arrows="1" fold="1" page="1" pageScale="1" pageWidth="827" pageHeight="1169" math="0" shadow="0">
      <root>
        <mxCell id="0" />
        <mxCell id="1" parent="0" />
        <mxCell id="4OipGeuQki84CetcUv4a-2" value="DE100M" style="shape=table;startSize=30;container=1;collapsible=0;childLayout=tableLayout;fixedRows=1;rowLines=0;fontStyle=1;fillColor=#FFFFFF;fontSize=9;" vertex="1" parent="1">
          <mxGeometry x="10" y="20" width="120" height="691" as="geometry" />
        </mxCell>
        <mxCell id="4OipGeuQki84CetcUv4a-3" value="" style="shape=tableRow;horizontal=0;startSize=0;swimlaneHead=0;swimlaneBody=0;top=0;left=0;bottom=0;right=0;collapsible=0;dropTarget=0;fillColor=none;points=[[0,0.5],[1,0.5]];portConstraint=eastwest;" vertex="1" parent="4OipGeuQki84CetcUv4a-2">
          <mxGeometry y="30" width="120" height="30" as="geometry" />
        </mxCell>
        <mxCell id="4OipGeuQki84CetcUv4a-4" value="" style="shape=partialRectangle;html=1;whiteSpace=wrap;connectable=0;fillColor=none;top=0;left=0;bottom=0;right=0;overflow=hidden;pointerEvents=1;" vertex="1" parent="4OipGeuQki84CetcUv4a-3">
          <mxGeometry width="14" height="30" as="geometry">
            <mxRectangle width="14" height="30" as="alternateBounds" />
          </mxGeometry>
        </mxCell>
        <mxCell id="4OipGeuQki84CetcUv4a-5" value="IZACD" style="shape=partialRectangle;html=1;whiteSpace=wrap;connectable=0;fillColor=none;top=0;left=0;bottom=0;right=0;align=left;spacingLeft=6;overflow=hidden;fontSize=10;" vertex="1" parent="4OipGeuQki84CetcUv4a-3">
          <mxGeometry x="14" width="62" height="30" as="geometry">
            <mxRectangle width="62" height="30" as="alternateBounds" />
          </mxGeometry>
        </mxCell>
        <mxCell id="4OipGeuQki84CetcUv4a-13" style="shape=partialRectangle;html=1;whiteSpace=wrap;connectable=0;fillColor=none;top=0;left=0;bottom=0;right=0;align=left;spacingLeft=6;overflow=hidden;fontSize=10;" vertex="1" parent="4OipGeuQki84CetcUv4a-3">
          <mxGeometry x="76" width="44" height="30" as="geometry">
            <mxRectangle width="44" height="30" as="alternateBounds" />
          </mxGeometry>
        </mxCell>
        <mxCell id="4OipGeuQki84CetcUv4a-6" value="" style="shape=tableRow;horizontal=0;startSize=0;swimlaneHead=0;swimlaneBody=0;top=0;left=0;bottom=0;right=0;collapsible=0;dropTarget=0;fillColor=none;points=[[0,0.5],[1,0.5]];portConstraint=eastwest;" vertex="1" parent="4OipGeuQki84CetcUv4a-2">
          <mxGeometry y="60" width="120" height="31" as="geometry" />
        </mxCell>
        <mxCell id="4OipGeuQki84CetcUv4a-7" value="" style="shape=partialRectangle;html=1;whiteSpace=wrap;connectable=0;fillColor=none;top=0;left=0;bottom=0;right=0;overflow=hidden;" vertex="1" parent="4OipGeuQki84CetcUv4a-6">
          <mxGeometry width="14" height="31" as="geometry">
            <mxRectangle width="14" height="31" as="alternateBounds" />
          </mxGeometry>
        </mxCell>
        <mxCell id="4OipGeuQki84CetcUv4a-8" value="IZPN" style="shape=partialRectangle;html=1;whiteSpace=wrap;connectable=0;fillColor=none;top=0;left=0;bottom=0;right=0;align=left;spacingLeft=6;overflow=hidden;fontSize=10;" vertex="1" parent="4OipGeuQki84CetcUv4a-6">
          <mxGeometry x="14" width="62" height="31" as="geometry">
            <mxRectangle width="62" height="31" as="alternateBounds" />
          </mxGeometry>
        </mxCell>
        <mxCell id="4OipGeuQki84CetcUv4a-14" style="shape=partialRectangle;html=1;whiteSpace=wrap;connectable=0;fillColor=none;top=0;left=0;bottom=0;right=0;align=left;spacingLeft=6;overflow=hidden;fontSize=10;" vertex="1" parent="4OipGeuQki84CetcUv4a-6">
          <mxGeometry x="76" width="44" height="31" as="geometry">
            <mxRectangle width="44" height="31" as="alternateBounds" />
          </mxGeometry>
        </mxCell>
        <mxCell id="4OipGeuQki84CetcUv4a-9" value="" style="shape=tableRow;horizontal=0;startSize=0;swimlaneHead=0;swimlaneBody=0;top=0;left=0;bottom=0;right=0;collapsible=0;dropTarget=0;fillColor=none;points=[[0,0.5],[1,0.5]];portConstraint=eastwest;" vertex="1" parent="4OipGeuQki84CetcUv4a-2">
          <mxGeometry y="91" width="120" height="30" as="geometry" />
        </mxCell>
        <mxCell id="4OipGeuQki84CetcUv4a-10" value="" style="shape=partialRectangle;html=1;whiteSpace=wrap;connectable=0;fillColor=none;top=0;left=0;bottom=0;right=0;overflow=hidden;" vertex="1" parent="4OipGeuQki84CetcUv4a-9">
          <mxGeometry width="14" height="30" as="geometry">
            <mxRectangle width="14" height="30" as="alternateBounds" />
          </mxGeometry>
        </mxCell>
        <mxCell id="4OipGeuQki84CetcUv4a-11" value="PMPLNT" style="shape=partialRectangle;html=1;whiteSpace=wrap;connectable=0;fillColor=none;top=0;left=0;bottom=0;right=0;align=left;spacingLeft=6;overflow=hidden;fontSize=10;" vertex="1" parent="4OipGeuQki84CetcUv4a-9">
          <mxGeometry x="14" width="62" height="30" as="geometry">
            <mxRectangle width="62" height="30" as="alternateBounds" />
          </mxGeometry>
        </mxCell>
        <mxCell id="4OipGeuQki84CetcUv4a-15" style="shape=partialRectangle;html=1;whiteSpace=wrap;connectable=0;fillColor=none;top=0;left=0;bottom=0;right=0;align=left;spacingLeft=6;overflow=hidden;fontSize=10;" vertex="1" parent="4OipGeuQki84CetcUv4a-9">
          <mxGeometry x="76" width="44" height="30" as="geometry">
            <mxRectangle width="44" height="30" as="alternateBounds" />
          </mxGeometry>
        </mxCell>
        <mxCell id="4OipGeuQki84CetcUv4a-16" style="shape=tableRow;horizontal=0;startSize=0;swimlaneHead=0;swimlaneBody=0;top=0;left=0;bottom=0;right=0;collapsible=0;dropTarget=0;fillColor=none;points=[[0,0.5],[1,0.5]];portConstraint=eastwest;" vertex="1" parent="4OipGeuQki84CetcUv4a-2">
          <mxGeometry y="121" width="120" height="30" as="geometry" />
        </mxCell>
        <mxCell id="4OipGeuQki84CetcUv4a-17" style="shape=partialRectangle;html=1;whiteSpace=wrap;connectable=0;fillColor=none;top=0;left=0;bottom=0;right=0;overflow=hidden;" vertex="1" parent="4OipGeuQki84CetcUv4a-16">
          <mxGeometry width="14" height="30" as="geometry">
            <mxRectangle width="14" height="30" as="alternateBounds" />
          </mxGeometry>
        </mxCell>
        <mxCell id="4OipGeuQki84CetcUv4a-18" value="&lt;span style=&quot;font-size: 10px;&quot;&gt;CMDESC&lt;/span&gt;" style="shape=partialRectangle;html=1;whiteSpace=wrap;connectable=0;fillColor=none;top=0;left=0;bottom=0;right=0;align=left;spacingLeft=6;overflow=hidden;fontSize=10;" vertex="1" parent="4OipGeuQki84CetcUv4a-16">
          <mxGeometry x="14" width="62" height="30" as="geometry">
            <mxRectangle width="62" height="30" as="alternateBounds" />
          </mxGeometry>
        </mxCell>
        <mxCell id="4OipGeuQki84CetcUv4a-19" style="shape=partialRectangle;html=1;whiteSpace=wrap;connectable=0;fillColor=none;top=0;left=0;bottom=0;right=0;align=left;spacingLeft=6;overflow=hidden;fontSize=10;" vertex="1" parent="4OipGeuQki84CetcUv4a-16">
          <mxGeometry x="76" width="44" height="30" as="geometry">
            <mxRectangle width="44" height="30" as="alternateBounds" />
          </mxGeometry>
        </mxCell>
        <mxCell id="4OipGeuQki84CetcUv4a-21" style="shape=tableRow;horizontal=0;startSize=0;swimlaneHead=0;swimlaneBody=0;top=0;left=0;bottom=0;right=0;collapsible=0;dropTarget=0;fillColor=none;points=[[0,0.5],[1,0.5]];portConstraint=eastwest;" vertex="1" parent="4OipGeuQki84CetcUv4a-2">
          <mxGeometry y="151" width="120" height="30" as="geometry" />
        </mxCell>
        <mxCell id="4OipGeuQki84CetcUv4a-22" style="shape=partialRectangle;html=1;whiteSpace=wrap;connectable=0;fillColor=none;top=0;left=0;bottom=0;right=0;overflow=hidden;" vertex="1" parent="4OipGeuQki84CetcUv4a-21">
          <mxGeometry width="14" height="30" as="geometry">
            <mxRectangle width="14" height="30" as="alternateBounds" />
          </mxGeometry>
        </mxCell>
        <mxCell id="4OipGeuQki84CetcUv4a-23" value="MTYPN" style="shape=partialRectangle;html=1;whiteSpace=wrap;connectable=0;fillColor=none;top=0;left=0;bottom=0;right=0;align=left;spacingLeft=6;overflow=hidden;fontSize=10;" vertex="1" parent="4OipGeuQki84CetcUv4a-21">
          <mxGeometry x="14" width="62" height="30" as="geometry">
            <mxRectangle width="62" height="30" as="alternateBounds" />
          </mxGeometry>
        </mxCell>
        <mxCell id="4OipGeuQki84CetcUv4a-24" style="shape=partialRectangle;html=1;whiteSpace=wrap;connectable=0;fillColor=none;top=0;left=0;bottom=0;right=0;align=left;spacingLeft=6;overflow=hidden;fontSize=10;" vertex="1" parent="4OipGeuQki84CetcUv4a-21">
          <mxGeometry x="76" width="44" height="30" as="geometry">
            <mxRectangle width="44" height="30" as="alternateBounds" />
          </mxGeometry>
        </mxCell>
        <mxCell id="4OipGeuQki84CetcUv4a-29" style="shape=tableRow;horizontal=0;startSize=0;swimlaneHead=0;swimlaneBody=0;top=0;left=0;bottom=0;right=0;collapsible=0;dropTarget=0;fillColor=none;points=[[0,0.5],[1,0.5]];portConstraint=eastwest;" vertex="1" parent="4OipGeuQki84CetcUv4a-2">
          <mxGeometry y="181" width="120" height="30" as="geometry" />
        </mxCell>
        <mxCell id="4OipGeuQki84CetcUv4a-30" style="shape=partialRectangle;html=1;whiteSpace=wrap;connectable=0;fillColor=none;top=0;left=0;bottom=0;right=0;overflow=hidden;" vertex="1" parent="4OipGeuQki84CetcUv4a-29">
          <mxGeometry width="14" height="30" as="geometry">
            <mxRectangle width="14" height="30" as="alternateBounds" />
          </mxGeometry>
        </mxCell>
        <mxCell id="4OipGeuQki84CetcUv4a-31" value="PMMBFL" style="shape=partialRectangle;html=1;whiteSpace=wrap;connectable=0;fillColor=none;top=0;left=0;bottom=0;right=0;align=left;spacingLeft=6;overflow=hidden;fontSize=10;" vertex="1" parent="4OipGeuQki84CetcUv4a-29">
          <mxGeometry x="14" width="62" height="30" as="geometry">
            <mxRectangle width="62" height="30" as="alternateBounds" />
          </mxGeometry>
        </mxCell>
        <mxCell id="4OipGeuQki84CetcUv4a-32" style="shape=partialRectangle;html=1;whiteSpace=wrap;connectable=0;fillColor=none;top=0;left=0;bottom=0;right=0;align=left;spacingLeft=6;overflow=hidden;fontSize=10;" vertex="1" parent="4OipGeuQki84CetcUv4a-29">
          <mxGeometry x="76" width="44" height="30" as="geometry">
            <mxRectangle width="44" height="30" as="alternateBounds" />
          </mxGeometry>
        </mxCell>
        <mxCell id="4OipGeuQki84CetcUv4a-34" style="shape=tableRow;horizontal=0;startSize=0;swimlaneHead=0;swimlaneBody=0;top=0;left=0;bottom=0;right=0;collapsible=0;dropTarget=0;fillColor=none;points=[[0,0.5],[1,0.5]];portConstraint=eastwest;" vertex="1" parent="4OipGeuQki84CetcUv4a-2">
          <mxGeometry y="211" width="120" height="30" as="geometry" />
        </mxCell>
        <mxCell id="4OipGeuQki84CetcUv4a-35" style="shape=partialRectangle;html=1;whiteSpace=wrap;connectable=0;fillColor=none;top=0;left=0;bottom=0;right=0;overflow=hidden;" vertex="1" parent="4OipGeuQki84CetcUv4a-34">
          <mxGeometry width="14" height="30" as="geometry">
            <mxRectangle width="14" height="30" as="alternateBounds" />
          </mxGeometry>
        </mxCell>
        <mxCell id="4OipGeuQki84CetcUv4a-36" value="AMDRG" style="shape=partialRectangle;html=1;whiteSpace=wrap;connectable=0;fillColor=none;top=0;left=0;bottom=0;right=0;align=left;spacingLeft=6;overflow=hidden;fontSize=10;" vertex="1" parent="4OipGeuQki84CetcUv4a-34">
          <mxGeometry x="14" width="62" height="30" as="geometry">
            <mxRectangle width="62" height="30" as="alternateBounds" />
          </mxGeometry>
        </mxCell>
        <mxCell id="4OipGeuQki84CetcUv4a-37" style="shape=partialRectangle;html=1;whiteSpace=wrap;connectable=0;fillColor=none;top=0;left=0;bottom=0;right=0;align=left;spacingLeft=6;overflow=hidden;fontSize=10;" vertex="1" parent="4OipGeuQki84CetcUv4a-34">
          <mxGeometry x="76" width="44" height="30" as="geometry">
            <mxRectangle width="44" height="30" as="alternateBounds" />
          </mxGeometry>
        </mxCell>
        <mxCell id="4OipGeuQki84CetcUv4a-38" style="shape=tableRow;horizontal=0;startSize=0;swimlaneHead=0;swimlaneBody=0;top=0;left=0;bottom=0;right=0;collapsible=0;dropTarget=0;fillColor=none;points=[[0,0.5],[1,0.5]];portConstraint=eastwest;" vertex="1" parent="4OipGeuQki84CetcUv4a-2">
          <mxGeometry y="241" width="120" height="30" as="geometry" />
        </mxCell>
        <mxCell id="4OipGeuQki84CetcUv4a-39" style="shape=partialRectangle;html=1;whiteSpace=wrap;connectable=0;fillColor=none;top=0;left=0;bottom=0;right=0;overflow=hidden;" vertex="1" parent="4OipGeuQki84CetcUv4a-38">
          <mxGeometry width="14" height="30" as="geometry">
            <mxRectangle width="14" height="30" as="alternateBounds" />
          </mxGeometry>
        </mxCell>
        <mxCell id="4OipGeuQki84CetcUv4a-40" value="AMACC" style="shape=partialRectangle;html=1;whiteSpace=wrap;connectable=0;fillColor=none;top=0;left=0;bottom=0;right=0;align=left;spacingLeft=6;overflow=hidden;fontSize=10;" vertex="1" parent="4OipGeuQki84CetcUv4a-38">
          <mxGeometry x="14" width="62" height="30" as="geometry">
            <mxRectangle width="62" height="30" as="alternateBounds" />
          </mxGeometry>
        </mxCell>
        <mxCell id="4OipGeuQki84CetcUv4a-41" style="shape=partialRectangle;html=1;whiteSpace=wrap;connectable=0;fillColor=none;top=0;left=0;bottom=0;right=0;align=left;spacingLeft=6;overflow=hidden;fontSize=10;" vertex="1" parent="4OipGeuQki84CetcUv4a-38">
          <mxGeometry x="76" width="44" height="30" as="geometry">
            <mxRectangle width="44" height="30" as="alternateBounds" />
          </mxGeometry>
        </mxCell>
        <mxCell id="4OipGeuQki84CetcUv4a-42" style="shape=tableRow;horizontal=0;startSize=0;swimlaneHead=0;swimlaneBody=0;top=0;left=0;bottom=0;right=0;collapsible=0;dropTarget=0;fillColor=none;points=[[0,0.5],[1,0.5]];portConstraint=eastwest;" vertex="1" parent="4OipGeuQki84CetcUv4a-2">
          <mxGeometry y="271" width="120" height="30" as="geometry" />
        </mxCell>
        <mxCell id="4OipGeuQki84CetcUv4a-43" style="shape=partialRectangle;html=1;whiteSpace=wrap;connectable=0;fillColor=none;top=0;left=0;bottom=0;right=0;overflow=hidden;" vertex="1" parent="4OipGeuQki84CetcUv4a-42">
          <mxGeometry width="14" height="30" as="geometry">
            <mxRectangle width="14" height="30" as="alternateBounds" />
          </mxGeometry>
        </mxCell>
        <mxCell id="4OipGeuQki84CetcUv4a-44" value="ACBAC" style="shape=partialRectangle;html=1;whiteSpace=wrap;connectable=0;fillColor=none;top=0;left=0;bottom=0;right=0;align=left;spacingLeft=6;overflow=hidden;fontSize=10;" vertex="1" parent="4OipGeuQki84CetcUv4a-42">
          <mxGeometry x="14" width="62" height="30" as="geometry">
            <mxRectangle width="62" height="30" as="alternateBounds" />
          </mxGeometry>
        </mxCell>
        <mxCell id="4OipGeuQki84CetcUv4a-45" style="shape=partialRectangle;html=1;whiteSpace=wrap;connectable=0;fillColor=none;top=0;left=0;bottom=0;right=0;align=left;spacingLeft=6;overflow=hidden;fontSize=10;" vertex="1" parent="4OipGeuQki84CetcUv4a-42">
          <mxGeometry x="76" width="44" height="30" as="geometry">
            <mxRectangle width="44" height="30" as="alternateBounds" />
          </mxGeometry>
        </mxCell>
        <mxCell id="4OipGeuQki84CetcUv4a-46" style="shape=tableRow;horizontal=0;startSize=0;swimlaneHead=0;swimlaneBody=0;top=0;left=0;bottom=0;right=0;collapsible=0;dropTarget=0;fillColor=none;points=[[0,0.5],[1,0.5]];portConstraint=eastwest;" vertex="1" parent="4OipGeuQki84CetcUv4a-2">
          <mxGeometry y="301" width="120" height="30" as="geometry" />
        </mxCell>
        <mxCell id="4OipGeuQki84CetcUv4a-47" style="shape=partialRectangle;html=1;whiteSpace=wrap;connectable=0;fillColor=none;top=0;left=0;bottom=0;right=0;overflow=hidden;" vertex="1" parent="4OipGeuQki84CetcUv4a-46">
          <mxGeometry width="14" height="30" as="geometry">
            <mxRectangle width="14" height="30" as="alternateBounds" />
          </mxGeometry>
        </mxCell>
        <mxCell id="4OipGeuQki84CetcUv4a-48" value="PMDMND" style="shape=partialRectangle;html=1;whiteSpace=wrap;connectable=0;fillColor=none;top=0;left=0;bottom=0;right=0;align=left;spacingLeft=6;overflow=hidden;fontSize=10;" vertex="1" parent="4OipGeuQki84CetcUv4a-46">
          <mxGeometry x="14" width="62" height="30" as="geometry">
            <mxRectangle width="62" height="30" as="alternateBounds" />
          </mxGeometry>
        </mxCell>
        <mxCell id="4OipGeuQki84CetcUv4a-49" style="shape=partialRectangle;html=1;whiteSpace=wrap;connectable=0;fillColor=none;top=0;left=0;bottom=0;right=0;align=left;spacingLeft=6;overflow=hidden;fontSize=10;" vertex="1" parent="4OipGeuQki84CetcUv4a-46">
          <mxGeometry x="76" width="44" height="30" as="geometry">
            <mxRectangle width="44" height="30" as="alternateBounds" />
          </mxGeometry>
        </mxCell>
        <mxCell id="4OipGeuQki84CetcUv4a-50" style="shape=tableRow;horizontal=0;startSize=0;swimlaneHead=0;swimlaneBody=0;top=0;left=0;bottom=0;right=0;collapsible=0;dropTarget=0;fillColor=none;points=[[0,0.5],[1,0.5]];portConstraint=eastwest;" vertex="1" parent="4OipGeuQki84CetcUv4a-2">
          <mxGeometry y="331" width="120" height="30" as="geometry" />
        </mxCell>
        <mxCell id="4OipGeuQki84CetcUv4a-51" style="shape=partialRectangle;html=1;whiteSpace=wrap;connectable=0;fillColor=none;top=0;left=0;bottom=0;right=0;overflow=hidden;" vertex="1" parent="4OipGeuQki84CetcUv4a-50">
          <mxGeometry width="14" height="30" as="geometry">
            <mxRectangle width="14" height="30" as="alternateBounds" />
          </mxGeometry>
        </mxCell>
        <mxCell id="4OipGeuQki84CetcUv4a-52" value="MOPOQ" style="shape=partialRectangle;html=1;whiteSpace=wrap;connectable=0;fillColor=none;top=0;left=0;bottom=0;right=0;align=left;spacingLeft=6;overflow=hidden;fontSize=10;" vertex="1" parent="4OipGeuQki84CetcUv4a-50">
          <mxGeometry x="14" width="62" height="30" as="geometry">
            <mxRectangle width="62" height="30" as="alternateBounds" />
          </mxGeometry>
        </mxCell>
        <mxCell id="4OipGeuQki84CetcUv4a-53" style="shape=partialRectangle;html=1;whiteSpace=wrap;connectable=0;fillColor=none;top=0;left=0;bottom=0;right=0;align=left;spacingLeft=6;overflow=hidden;fontSize=10;" vertex="1" parent="4OipGeuQki84CetcUv4a-50">
          <mxGeometry x="76" width="44" height="30" as="geometry">
            <mxRectangle width="44" height="30" as="alternateBounds" />
          </mxGeometry>
        </mxCell>
        <mxCell id="4OipGeuQki84CetcUv4a-55" style="shape=tableRow;horizontal=0;startSize=0;swimlaneHead=0;swimlaneBody=0;top=0;left=0;bottom=0;right=0;collapsible=0;dropTarget=0;fillColor=none;points=[[0,0.5],[1,0.5]];portConstraint=eastwest;" vertex="1" parent="4OipGeuQki84CetcUv4a-2">
          <mxGeometry y="361" width="120" height="30" as="geometry" />
        </mxCell>
        <mxCell id="4OipGeuQki84CetcUv4a-56" style="shape=partialRectangle;html=1;whiteSpace=wrap;connectable=0;fillColor=none;top=0;left=0;bottom=0;right=0;overflow=hidden;" vertex="1" parent="4OipGeuQki84CetcUv4a-55">
          <mxGeometry width="14" height="30" as="geometry">
            <mxRectangle width="14" height="30" as="alternateBounds" />
          </mxGeometry>
        </mxCell>
        <mxCell id="4OipGeuQki84CetcUv4a-57" value="PMOPIN" style="shape=partialRectangle;html=1;whiteSpace=wrap;connectable=0;fillColor=none;top=0;left=0;bottom=0;right=0;align=left;spacingLeft=6;overflow=hidden;fontSize=10;" vertex="1" parent="4OipGeuQki84CetcUv4a-55">
          <mxGeometry x="14" width="62" height="30" as="geometry">
            <mxRectangle width="62" height="30" as="alternateBounds" />
          </mxGeometry>
        </mxCell>
        <mxCell id="4OipGeuQki84CetcUv4a-58" style="shape=partialRectangle;html=1;whiteSpace=wrap;connectable=0;fillColor=none;top=0;left=0;bottom=0;right=0;align=left;spacingLeft=6;overflow=hidden;fontSize=10;" vertex="1" parent="4OipGeuQki84CetcUv4a-55">
          <mxGeometry x="76" width="44" height="30" as="geometry">
            <mxRectangle width="44" height="30" as="alternateBounds" />
          </mxGeometry>
        </mxCell>
        <mxCell id="4OipGeuQki84CetcUv4a-59" style="shape=tableRow;horizontal=0;startSize=0;swimlaneHead=0;swimlaneBody=0;top=0;left=0;bottom=0;right=0;collapsible=0;dropTarget=0;fillColor=none;points=[[0,0.5],[1,0.5]];portConstraint=eastwest;" vertex="1" parent="4OipGeuQki84CetcUv4a-2">
          <mxGeometry y="391" width="120" height="30" as="geometry" />
        </mxCell>
        <mxCell id="4OipGeuQki84CetcUv4a-60" style="shape=partialRectangle;html=1;whiteSpace=wrap;connectable=0;fillColor=none;top=0;left=0;bottom=0;right=0;overflow=hidden;" vertex="1" parent="4OipGeuQki84CetcUv4a-59">
          <mxGeometry width="14" height="30" as="geometry">
            <mxRectangle width="14" height="30" as="alternateBounds" />
          </mxGeometry>
        </mxCell>
        <mxCell id="4OipGeuQki84CetcUv4a-61" value="AMSSK" style="shape=partialRectangle;html=1;whiteSpace=wrap;connectable=0;fillColor=none;top=0;left=0;bottom=0;right=0;align=left;spacingLeft=6;overflow=hidden;fontSize=10;" vertex="1" parent="4OipGeuQki84CetcUv4a-59">
          <mxGeometry x="14" width="62" height="30" as="geometry">
            <mxRectangle width="62" height="30" as="alternateBounds" />
          </mxGeometry>
        </mxCell>
        <mxCell id="4OipGeuQki84CetcUv4a-62" style="shape=partialRectangle;html=1;whiteSpace=wrap;connectable=0;fillColor=none;top=0;left=0;bottom=0;right=0;align=left;spacingLeft=6;overflow=hidden;fontSize=10;" vertex="1" parent="4OipGeuQki84CetcUv4a-59">
          <mxGeometry x="76" width="44" height="30" as="geometry">
            <mxRectangle width="44" height="30" as="alternateBounds" />
          </mxGeometry>
        </mxCell>
        <mxCell id="4OipGeuQki84CetcUv4a-63" style="shape=tableRow;horizontal=0;startSize=0;swimlaneHead=0;swimlaneBody=0;top=0;left=0;bottom=0;right=0;collapsible=0;dropTarget=0;fillColor=none;points=[[0,0.5],[1,0.5]];portConstraint=eastwest;" vertex="1" parent="4OipGeuQki84CetcUv4a-2">
          <mxGeometry y="421" width="120" height="30" as="geometry" />
        </mxCell>
        <mxCell id="4OipGeuQki84CetcUv4a-64" style="shape=partialRectangle;html=1;whiteSpace=wrap;connectable=0;fillColor=none;top=0;left=0;bottom=0;right=0;overflow=hidden;" vertex="1" parent="4OipGeuQki84CetcUv4a-63">
          <mxGeometry width="14" height="30" as="geometry">
            <mxRectangle width="14" height="30" as="alternateBounds" />
          </mxGeometry>
        </mxCell>
        <mxCell id="4OipGeuQki84CetcUv4a-65" value="MLTPU" style="shape=partialRectangle;html=1;whiteSpace=wrap;connectable=0;fillColor=none;top=0;left=0;bottom=0;right=0;align=left;spacingLeft=6;overflow=hidden;fontSize=10;" vertex="1" parent="4OipGeuQki84CetcUv4a-63">
          <mxGeometry x="14" width="62" height="30" as="geometry">
            <mxRectangle width="62" height="30" as="alternateBounds" />
          </mxGeometry>
        </mxCell>
        <mxCell id="4OipGeuQki84CetcUv4a-66" style="shape=partialRectangle;html=1;whiteSpace=wrap;connectable=0;fillColor=none;top=0;left=0;bottom=0;right=0;align=left;spacingLeft=6;overflow=hidden;fontSize=10;" vertex="1" parent="4OipGeuQki84CetcUv4a-63">
          <mxGeometry x="76" width="44" height="30" as="geometry">
            <mxRectangle width="44" height="30" as="alternateBounds" />
          </mxGeometry>
        </mxCell>
        <mxCell id="4OipGeuQki84CetcUv4a-68" style="shape=tableRow;horizontal=0;startSize=0;swimlaneHead=0;swimlaneBody=0;top=0;left=0;bottom=0;right=0;collapsible=0;dropTarget=0;fillColor=none;points=[[0,0.5],[1,0.5]];portConstraint=eastwest;" vertex="1" parent="4OipGeuQki84CetcUv4a-2">
          <mxGeometry y="451" width="120" height="30" as="geometry" />
        </mxCell>
        <mxCell id="4OipGeuQki84CetcUv4a-69" style="shape=partialRectangle;html=1;whiteSpace=wrap;connectable=0;fillColor=none;top=0;left=0;bottom=0;right=0;overflow=hidden;" vertex="1" parent="4OipGeuQki84CetcUv4a-68">
          <mxGeometry width="14" height="30" as="geometry">
            <mxRectangle width="14" height="30" as="alternateBounds" />
          </mxGeometry>
        </mxCell>
        <mxCell id="4OipGeuQki84CetcUv4a-70" value="AMSIRL" style="shape=partialRectangle;html=1;whiteSpace=wrap;connectable=0;fillColor=none;top=0;left=0;bottom=0;right=0;align=left;spacingLeft=6;overflow=hidden;fontSize=10;" vertex="1" parent="4OipGeuQki84CetcUv4a-68">
          <mxGeometry x="14" width="62" height="30" as="geometry">
            <mxRectangle width="62" height="30" as="alternateBounds" />
          </mxGeometry>
        </mxCell>
        <mxCell id="4OipGeuQki84CetcUv4a-71" style="shape=partialRectangle;html=1;whiteSpace=wrap;connectable=0;fillColor=none;top=0;left=0;bottom=0;right=0;align=left;spacingLeft=6;overflow=hidden;fontSize=10;" vertex="1" parent="4OipGeuQki84CetcUv4a-68">
          <mxGeometry x="76" width="44" height="30" as="geometry">
            <mxRectangle width="44" height="30" as="alternateBounds" />
          </mxGeometry>
        </mxCell>
        <mxCell id="4OipGeuQki84CetcUv4a-72" style="shape=tableRow;horizontal=0;startSize=0;swimlaneHead=0;swimlaneBody=0;top=0;left=0;bottom=0;right=0;collapsible=0;dropTarget=0;fillColor=none;points=[[0,0.5],[1,0.5]];portConstraint=eastwest;" vertex="1" parent="4OipGeuQki84CetcUv4a-2">
          <mxGeometry y="481" width="120" height="30" as="geometry" />
        </mxCell>
        <mxCell id="4OipGeuQki84CetcUv4a-73" style="shape=partialRectangle;html=1;whiteSpace=wrap;connectable=0;fillColor=none;top=0;left=0;bottom=0;right=0;overflow=hidden;" vertex="1" parent="4OipGeuQki84CetcUv4a-72">
          <mxGeometry width="14" height="30" as="geometry">
            <mxRectangle width="14" height="30" as="alternateBounds" />
          </mxGeometry>
        </mxCell>
        <mxCell id="4OipGeuQki84CetcUv4a-74" value="MUCFM" style="shape=partialRectangle;html=1;whiteSpace=wrap;connectable=0;fillColor=none;top=0;left=0;bottom=0;right=0;align=left;spacingLeft=6;overflow=hidden;fontSize=10;" vertex="1" parent="4OipGeuQki84CetcUv4a-72">
          <mxGeometry x="14" width="62" height="30" as="geometry">
            <mxRectangle width="62" height="30" as="alternateBounds" />
          </mxGeometry>
        </mxCell>
        <mxCell id="4OipGeuQki84CetcUv4a-75" style="shape=partialRectangle;html=1;whiteSpace=wrap;connectable=0;fillColor=none;top=0;left=0;bottom=0;right=0;align=left;spacingLeft=6;overflow=hidden;fontSize=10;" vertex="1" parent="4OipGeuQki84CetcUv4a-72">
          <mxGeometry x="76" width="44" height="30" as="geometry">
            <mxRectangle width="44" height="30" as="alternateBounds" />
          </mxGeometry>
        </mxCell>
        <mxCell id="4OipGeuQki84CetcUv4a-76" style="shape=tableRow;horizontal=0;startSize=0;swimlaneHead=0;swimlaneBody=0;top=0;left=0;bottom=0;right=0;collapsible=0;dropTarget=0;fillColor=none;points=[[0,0.5],[1,0.5]];portConstraint=eastwest;" vertex="1" parent="4OipGeuQki84CetcUv4a-2">
          <mxGeometry y="511" width="120" height="30" as="geometry" />
        </mxCell>
        <mxCell id="4OipGeuQki84CetcUv4a-77" style="shape=partialRectangle;html=1;whiteSpace=wrap;connectable=0;fillColor=none;top=0;left=0;bottom=0;right=0;overflow=hidden;" vertex="1" parent="4OipGeuQki84CetcUv4a-76">
          <mxGeometry width="14" height="30" as="geometry">
            <mxRectangle width="14" height="30" as="alternateBounds" />
          </mxGeometry>
        </mxCell>
        <mxCell id="4OipGeuQki84CetcUv4a-78" value="MUCFL" style="shape=partialRectangle;html=1;whiteSpace=wrap;connectable=0;fillColor=none;top=0;left=0;bottom=0;right=0;align=left;spacingLeft=6;overflow=hidden;fontSize=10;" vertex="1" parent="4OipGeuQki84CetcUv4a-76">
          <mxGeometry x="14" width="62" height="30" as="geometry">
            <mxRectangle width="62" height="30" as="alternateBounds" />
          </mxGeometry>
        </mxCell>
        <mxCell id="4OipGeuQki84CetcUv4a-79" style="shape=partialRectangle;html=1;whiteSpace=wrap;connectable=0;fillColor=none;top=0;left=0;bottom=0;right=0;align=left;spacingLeft=6;overflow=hidden;fontSize=10;" vertex="1" parent="4OipGeuQki84CetcUv4a-76">
          <mxGeometry x="76" width="44" height="30" as="geometry">
            <mxRectangle width="44" height="30" as="alternateBounds" />
          </mxGeometry>
        </mxCell>
        <mxCell id="4OipGeuQki84CetcUv4a-80" style="shape=tableRow;horizontal=0;startSize=0;swimlaneHead=0;swimlaneBody=0;top=0;left=0;bottom=0;right=0;collapsible=0;dropTarget=0;fillColor=none;points=[[0,0.5],[1,0.5]];portConstraint=eastwest;" vertex="1" parent="4OipGeuQki84CetcUv4a-2">
          <mxGeometry y="541" width="120" height="30" as="geometry" />
        </mxCell>
        <mxCell id="4OipGeuQki84CetcUv4a-81" style="shape=partialRectangle;html=1;whiteSpace=wrap;connectable=0;fillColor=none;top=0;left=0;bottom=0;right=0;overflow=hidden;" vertex="1" parent="4OipGeuQki84CetcUv4a-80">
          <mxGeometry width="14" height="30" as="geometry">
            <mxRectangle width="14" height="30" as="alternateBounds" />
          </mxGeometry>
        </mxCell>
        <mxCell id="4OipGeuQki84CetcUv4a-82" value="MUCFO" style="shape=partialRectangle;html=1;whiteSpace=wrap;connectable=0;fillColor=none;top=0;left=0;bottom=0;right=0;align=left;spacingLeft=6;overflow=hidden;fontSize=10;" vertex="1" parent="4OipGeuQki84CetcUv4a-80">
          <mxGeometry x="14" width="62" height="30" as="geometry">
            <mxRectangle width="62" height="30" as="alternateBounds" />
          </mxGeometry>
        </mxCell>
        <mxCell id="4OipGeuQki84CetcUv4a-83" style="shape=partialRectangle;html=1;whiteSpace=wrap;connectable=0;fillColor=none;top=0;left=0;bottom=0;right=0;align=left;spacingLeft=6;overflow=hidden;fontSize=10;" vertex="1" parent="4OipGeuQki84CetcUv4a-80">
          <mxGeometry x="76" width="44" height="30" as="geometry">
            <mxRectangle width="44" height="30" as="alternateBounds" />
          </mxGeometry>
        </mxCell>
        <mxCell id="4OipGeuQki84CetcUv4a-84" style="shape=tableRow;horizontal=0;startSize=0;swimlaneHead=0;swimlaneBody=0;top=0;left=0;bottom=0;right=0;collapsible=0;dropTarget=0;fillColor=none;points=[[0,0.5],[1,0.5]];portConstraint=eastwest;" vertex="1" parent="4OipGeuQki84CetcUv4a-2">
          <mxGeometry y="571" width="120" height="30" as="geometry" />
        </mxCell>
        <mxCell id="4OipGeuQki84CetcUv4a-85" style="shape=partialRectangle;html=1;whiteSpace=wrap;connectable=0;fillColor=none;top=0;left=0;bottom=0;right=0;overflow=hidden;" vertex="1" parent="4OipGeuQki84CetcUv4a-84">
          <mxGeometry width="14" height="30" as="geometry">
            <mxRectangle width="14" height="30" as="alternateBounds" />
          </mxGeometry>
        </mxCell>
        <mxCell id="4OipGeuQki84CetcUv4a-86" value="PMPTR2" style="shape=partialRectangle;html=1;whiteSpace=wrap;connectable=0;fillColor=none;top=0;left=0;bottom=0;right=0;align=left;spacingLeft=6;overflow=hidden;fontSize=10;" vertex="1" parent="4OipGeuQki84CetcUv4a-84">
          <mxGeometry x="14" width="62" height="30" as="geometry">
            <mxRectangle width="62" height="30" as="alternateBounds" />
          </mxGeometry>
        </mxCell>
        <mxCell id="4OipGeuQki84CetcUv4a-87" style="shape=partialRectangle;html=1;whiteSpace=wrap;connectable=0;fillColor=none;top=0;left=0;bottom=0;right=0;align=left;spacingLeft=6;overflow=hidden;fontSize=10;" vertex="1" parent="4OipGeuQki84CetcUv4a-84">
          <mxGeometry x="76" width="44" height="30" as="geometry">
            <mxRectangle width="44" height="30" as="alternateBounds" />
          </mxGeometry>
        </mxCell>
        <mxCell id="4OipGeuQki84CetcUv4a-89" style="shape=tableRow;horizontal=0;startSize=0;swimlaneHead=0;swimlaneBody=0;top=0;left=0;bottom=0;right=0;collapsible=0;dropTarget=0;fillColor=none;points=[[0,0.5],[1,0.5]];portConstraint=eastwest;" vertex="1" parent="4OipGeuQki84CetcUv4a-2">
          <mxGeometry y="601" width="120" height="30" as="geometry" />
        </mxCell>
        <mxCell id="4OipGeuQki84CetcUv4a-90" style="shape=partialRectangle;html=1;whiteSpace=wrap;connectable=0;fillColor=none;top=0;left=0;bottom=0;right=0;overflow=hidden;" vertex="1" parent="4OipGeuQki84CetcUv4a-89">
          <mxGeometry width="14" height="30" as="geometry">
            <mxRectangle width="14" height="30" as="alternateBounds" />
          </mxGeometry>
        </mxCell>
        <mxCell id="4OipGeuQki84CetcUv4a-91" value="USRLD1" style="shape=partialRectangle;html=1;whiteSpace=wrap;connectable=0;fillColor=none;top=0;left=0;bottom=0;right=0;align=left;spacingLeft=6;overflow=hidden;fontSize=10;" vertex="1" parent="4OipGeuQki84CetcUv4a-89">
          <mxGeometry x="14" width="62" height="30" as="geometry">
            <mxRectangle width="62" height="30" as="alternateBounds" />
          </mxGeometry>
        </mxCell>
        <mxCell id="4OipGeuQki84CetcUv4a-92" style="shape=partialRectangle;html=1;whiteSpace=wrap;connectable=0;fillColor=none;top=0;left=0;bottom=0;right=0;align=left;spacingLeft=6;overflow=hidden;fontSize=10;" vertex="1" parent="4OipGeuQki84CetcUv4a-89">
          <mxGeometry x="76" width="44" height="30" as="geometry">
            <mxRectangle width="44" height="30" as="alternateBounds" />
          </mxGeometry>
        </mxCell>
        <mxCell id="4OipGeuQki84CetcUv4a-93" style="shape=tableRow;horizontal=0;startSize=0;swimlaneHead=0;swimlaneBody=0;top=0;left=0;bottom=0;right=0;collapsible=0;dropTarget=0;fillColor=none;points=[[0,0.5],[1,0.5]];portConstraint=eastwest;" vertex="1" parent="4OipGeuQki84CetcUv4a-2">
          <mxGeometry y="631" width="120" height="30" as="geometry" />
        </mxCell>
        <mxCell id="4OipGeuQki84CetcUv4a-94" style="shape=partialRectangle;html=1;whiteSpace=wrap;connectable=0;fillColor=none;top=0;left=0;bottom=0;right=0;overflow=hidden;" vertex="1" parent="4OipGeuQki84CetcUv4a-93">
          <mxGeometry width="14" height="30" as="geometry">
            <mxRectangle width="14" height="30" as="alternateBounds" />
          </mxGeometry>
        </mxCell>
        <mxCell id="4OipGeuQki84CetcUv4a-95" value="USRN01" style="shape=partialRectangle;html=1;whiteSpace=wrap;connectable=0;fillColor=none;top=0;left=0;bottom=0;right=0;align=left;spacingLeft=6;overflow=hidden;fontSize=10;" vertex="1" parent="4OipGeuQki84CetcUv4a-93">
          <mxGeometry x="14" width="62" height="30" as="geometry">
            <mxRectangle width="62" height="30" as="alternateBounds" />
          </mxGeometry>
        </mxCell>
        <mxCell id="4OipGeuQki84CetcUv4a-96" style="shape=partialRectangle;html=1;whiteSpace=wrap;connectable=0;fillColor=none;top=0;left=0;bottom=0;right=0;align=left;spacingLeft=6;overflow=hidden;fontSize=10;" vertex="1" parent="4OipGeuQki84CetcUv4a-93">
          <mxGeometry x="76" width="44" height="30" as="geometry">
            <mxRectangle width="44" height="30" as="alternateBounds" />
          </mxGeometry>
        </mxCell>
        <mxCell id="4OipGeuQki84CetcUv4a-97" style="shape=tableRow;horizontal=0;startSize=0;swimlaneHead=0;swimlaneBody=0;top=0;left=0;bottom=0;right=0;collapsible=0;dropTarget=0;fillColor=none;points=[[0,0.5],[1,0.5]];portConstraint=eastwest;" vertex="1" parent="4OipGeuQki84CetcUv4a-2">
          <mxGeometry y="661" width="120" height="30" as="geometry" />
        </mxCell>
        <mxCell id="4OipGeuQki84CetcUv4a-98" style="shape=partialRectangle;html=1;whiteSpace=wrap;connectable=0;fillColor=none;top=0;left=0;bottom=0;right=0;overflow=hidden;" vertex="1" parent="4OipGeuQki84CetcUv4a-97">
          <mxGeometry width="14" height="30" as="geometry">
            <mxRectangle width="14" height="30" as="alternateBounds" />
          </mxGeometry>
        </mxCell>
        <mxCell id="4OipGeuQki84CetcUv4a-99" value="PMDKLT" style="shape=partialRectangle;html=1;whiteSpace=wrap;connectable=0;fillColor=none;top=0;left=0;bottom=0;right=0;align=left;spacingLeft=6;overflow=hidden;fontSize=10;" vertex="1" parent="4OipGeuQki84CetcUv4a-97">
          <mxGeometry x="14" width="62" height="30" as="geometry">
            <mxRectangle width="62" height="30" as="alternateBounds" />
          </mxGeometry>
        </mxCell>
        <mxCell id="4OipGeuQki84CetcUv4a-100" style="shape=partialRectangle;html=1;whiteSpace=wrap;connectable=0;fillColor=none;top=0;left=0;bottom=0;right=0;align=left;spacingLeft=6;overflow=hidden;fontSize=10;" vertex="1" parent="4OipGeuQki84CetcUv4a-97">
          <mxGeometry x="76" width="44" height="30" as="geometry">
            <mxRectangle width="44" height="30" as="alternateBounds" />
          </mxGeometry>
        </mxCell>
        <mxCell id="4OipGeuQki84CetcUv4a-102" value="DE120M" style="shape=table;startSize=30;container=1;collapsible=0;childLayout=tableLayout;fixedRows=1;rowLines=0;fontStyle=1;fillColor=#FFFFFF;fontSize=10;" vertex="1" parent="1">
          <mxGeometry x="150" y="20" width="120" height="301" as="geometry" />
        </mxCell>
        <mxCell id="4OipGeuQki84CetcUv4a-103" value="" style="shape=tableRow;horizontal=0;startSize=0;swimlaneHead=0;swimlaneBody=0;top=0;left=0;bottom=0;right=0;collapsible=0;dropTarget=0;fillColor=none;points=[[0,0.5],[1,0.5]];portConstraint=eastwest;fontSize=10;" vertex="1" parent="4OipGeuQki84CetcUv4a-102">
          <mxGeometry y="30" width="120" height="30" as="geometry" />
        </mxCell>
        <mxCell id="4OipGeuQki84CetcUv4a-104" value="" style="shape=partialRectangle;html=1;whiteSpace=wrap;connectable=0;fillColor=none;top=0;left=0;bottom=0;right=0;overflow=hidden;pointerEvents=1;fontSize=10;" vertex="1" parent="4OipGeuQki84CetcUv4a-103">
          <mxGeometry width="14" height="30" as="geometry">
            <mxRectangle width="14" height="30" as="alternateBounds" />
          </mxGeometry>
        </mxCell>
        <mxCell id="4OipGeuQki84CetcUv4a-105" value="PZPPN" style="shape=partialRectangle;html=1;whiteSpace=wrap;connectable=0;fillColor=none;top=0;left=0;bottom=0;right=0;align=left;spacingLeft=6;overflow=hidden;fontSize=10;" vertex="1" parent="4OipGeuQki84CetcUv4a-103">
          <mxGeometry x="14" width="62" height="30" as="geometry">
            <mxRectangle width="62" height="30" as="alternateBounds" />
          </mxGeometry>
        </mxCell>
        <mxCell id="4OipGeuQki84CetcUv4a-106" style="shape=partialRectangle;html=1;whiteSpace=wrap;connectable=0;fillColor=none;top=0;left=0;bottom=0;right=0;align=left;spacingLeft=6;overflow=hidden;fontSize=10;" vertex="1" parent="4OipGeuQki84CetcUv4a-103">
          <mxGeometry x="76" width="44" height="30" as="geometry">
            <mxRectangle width="44" height="30" as="alternateBounds" />
          </mxGeometry>
        </mxCell>
        <mxCell id="4OipGeuQki84CetcUv4a-107" value="" style="shape=tableRow;horizontal=0;startSize=0;swimlaneHead=0;swimlaneBody=0;top=0;left=0;bottom=0;right=0;collapsible=0;dropTarget=0;fillColor=none;points=[[0,0.5],[1,0.5]];portConstraint=eastwest;fontSize=10;" vertex="1" parent="4OipGeuQki84CetcUv4a-102">
          <mxGeometry y="60" width="120" height="31" as="geometry" />
        </mxCell>
        <mxCell id="4OipGeuQki84CetcUv4a-108" value="" style="shape=partialRectangle;html=1;whiteSpace=wrap;connectable=0;fillColor=none;top=0;left=0;bottom=0;right=0;overflow=hidden;fontSize=10;" vertex="1" parent="4OipGeuQki84CetcUv4a-107">
          <mxGeometry width="14" height="31" as="geometry">
            <mxRectangle width="14" height="31" as="alternateBounds" />
          </mxGeometry>
        </mxCell>
        <mxCell id="4OipGeuQki84CetcUv4a-109" value="PZCPN" style="shape=partialRectangle;html=1;whiteSpace=wrap;connectable=0;fillColor=none;top=0;left=0;bottom=0;right=0;align=left;spacingLeft=6;overflow=hidden;fontSize=10;" vertex="1" parent="4OipGeuQki84CetcUv4a-107">
          <mxGeometry x="14" width="62" height="31" as="geometry">
            <mxRectangle width="62" height="31" as="alternateBounds" />
          </mxGeometry>
        </mxCell>
        <mxCell id="4OipGeuQki84CetcUv4a-110" style="shape=partialRectangle;html=1;whiteSpace=wrap;connectable=0;fillColor=none;top=0;left=0;bottom=0;right=0;align=left;spacingLeft=6;overflow=hidden;fontSize=10;" vertex="1" parent="4OipGeuQki84CetcUv4a-107">
          <mxGeometry x="76" width="44" height="31" as="geometry">
            <mxRectangle width="44" height="31" as="alternateBounds" />
          </mxGeometry>
        </mxCell>
        <mxCell id="4OipGeuQki84CetcUv4a-111" value="" style="shape=tableRow;horizontal=0;startSize=0;swimlaneHead=0;swimlaneBody=0;top=0;left=0;bottom=0;right=0;collapsible=0;dropTarget=0;fillColor=none;points=[[0,0.5],[1,0.5]];portConstraint=eastwest;fontSize=10;" vertex="1" parent="4OipGeuQki84CetcUv4a-102">
          <mxGeometry y="91" width="120" height="30" as="geometry" />
        </mxCell>
        <mxCell id="4OipGeuQki84CetcUv4a-112" value="" style="shape=partialRectangle;html=1;whiteSpace=wrap;connectable=0;fillColor=none;top=0;left=0;bottom=0;right=0;overflow=hidden;fontSize=10;" vertex="1" parent="4OipGeuQki84CetcUv4a-111">
          <mxGeometry width="14" height="30" as="geometry">
            <mxRectangle width="14" height="30" as="alternateBounds" />
          </mxGeometry>
        </mxCell>
        <mxCell id="4OipGeuQki84CetcUv4a-113" value="PZQTY" style="shape=partialRectangle;html=1;whiteSpace=wrap;connectable=0;fillColor=none;top=0;left=0;bottom=0;right=0;align=left;spacingLeft=6;overflow=hidden;fontSize=10;" vertex="1" parent="4OipGeuQki84CetcUv4a-111">
          <mxGeometry x="14" width="62" height="30" as="geometry">
            <mxRectangle width="62" height="30" as="alternateBounds" />
          </mxGeometry>
        </mxCell>
        <mxCell id="4OipGeuQki84CetcUv4a-114" style="shape=partialRectangle;html=1;whiteSpace=wrap;connectable=0;fillColor=none;top=0;left=0;bottom=0;right=0;align=left;spacingLeft=6;overflow=hidden;fontSize=10;" vertex="1" parent="4OipGeuQki84CetcUv4a-111">
          <mxGeometry x="76" width="44" height="30" as="geometry">
            <mxRectangle width="44" height="30" as="alternateBounds" />
          </mxGeometry>
        </mxCell>
        <mxCell id="4OipGeuQki84CetcUv4a-115" style="shape=tableRow;horizontal=0;startSize=0;swimlaneHead=0;swimlaneBody=0;top=0;left=0;bottom=0;right=0;collapsible=0;dropTarget=0;fillColor=none;points=[[0,0.5],[1,0.5]];portConstraint=eastwest;fontSize=10;" vertex="1" parent="4OipGeuQki84CetcUv4a-102">
          <mxGeometry y="121" width="120" height="30" as="geometry" />
        </mxCell>
        <mxCell id="4OipGeuQki84CetcUv4a-116" style="shape=partialRectangle;html=1;whiteSpace=wrap;connectable=0;fillColor=none;top=0;left=0;bottom=0;right=0;overflow=hidden;fontSize=10;" vertex="1" parent="4OipGeuQki84CetcUv4a-115">
          <mxGeometry width="14" height="30" as="geometry">
            <mxRectangle width="14" height="30" as="alternateBounds" />
          </mxGeometry>
        </mxCell>
        <mxCell id="4OipGeuQki84CetcUv4a-117" value="PZREF" style="shape=partialRectangle;html=1;whiteSpace=wrap;connectable=0;fillColor=none;top=0;left=0;bottom=0;right=0;align=left;spacingLeft=6;overflow=hidden;fontSize=10;" vertex="1" parent="4OipGeuQki84CetcUv4a-115">
          <mxGeometry x="14" width="62" height="30" as="geometry">
            <mxRectangle width="62" height="30" as="alternateBounds" />
          </mxGeometry>
        </mxCell>
        <mxCell id="4OipGeuQki84CetcUv4a-118" style="shape=partialRectangle;html=1;whiteSpace=wrap;connectable=0;fillColor=none;top=0;left=0;bottom=0;right=0;align=left;spacingLeft=6;overflow=hidden;fontSize=10;" vertex="1" parent="4OipGeuQki84CetcUv4a-115">
          <mxGeometry x="76" width="44" height="30" as="geometry">
            <mxRectangle width="44" height="30" as="alternateBounds" />
          </mxGeometry>
        </mxCell>
        <mxCell id="4OipGeuQki84CetcUv4a-119" style="shape=tableRow;horizontal=0;startSize=0;swimlaneHead=0;swimlaneBody=0;top=0;left=0;bottom=0;right=0;collapsible=0;dropTarget=0;fillColor=none;points=[[0,0.5],[1,0.5]];portConstraint=eastwest;fontSize=10;" vertex="1" parent="4OipGeuQki84CetcUv4a-102">
          <mxGeometry y="151" width="120" height="30" as="geometry" />
        </mxCell>
        <mxCell id="4OipGeuQki84CetcUv4a-120" style="shape=partialRectangle;html=1;whiteSpace=wrap;connectable=0;fillColor=none;top=0;left=0;bottom=0;right=0;overflow=hidden;fontSize=10;" vertex="1" parent="4OipGeuQki84CetcUv4a-119">
          <mxGeometry width="14" height="30" as="geometry">
            <mxRectangle width="14" height="30" as="alternateBounds" />
          </mxGeometry>
        </mxCell>
        <mxCell id="4OipGeuQki84CetcUv4a-121" value="PSDCC" style="shape=partialRectangle;html=1;whiteSpace=wrap;connectable=0;fillColor=none;top=0;left=0;bottom=0;right=0;align=left;spacingLeft=6;overflow=hidden;fontSize=10;" vertex="1" parent="4OipGeuQki84CetcUv4a-119">
          <mxGeometry x="14" width="62" height="30" as="geometry">
            <mxRectangle width="62" height="30" as="alternateBounds" />
          </mxGeometry>
        </mxCell>
        <mxCell id="4OipGeuQki84CetcUv4a-122" style="shape=partialRectangle;html=1;whiteSpace=wrap;connectable=0;fillColor=none;top=0;left=0;bottom=0;right=0;align=left;spacingLeft=6;overflow=hidden;fontSize=10;" vertex="1" parent="4OipGeuQki84CetcUv4a-119">
          <mxGeometry x="76" width="44" height="30" as="geometry">
            <mxRectangle width="44" height="30" as="alternateBounds" />
          </mxGeometry>
        </mxCell>
        <mxCell id="4OipGeuQki84CetcUv4a-123" style="shape=tableRow;horizontal=0;startSize=0;swimlaneHead=0;swimlaneBody=0;top=0;left=0;bottom=0;right=0;collapsible=0;dropTarget=0;fillColor=none;points=[[0,0.5],[1,0.5]];portConstraint=eastwest;fontSize=10;" vertex="1" parent="4OipGeuQki84CetcUv4a-102">
          <mxGeometry y="181" width="120" height="30" as="geometry" />
        </mxCell>
        <mxCell id="4OipGeuQki84CetcUv4a-124" style="shape=partialRectangle;html=1;whiteSpace=wrap;connectable=0;fillColor=none;top=0;left=0;bottom=0;right=0;overflow=hidden;fontSize=10;" vertex="1" parent="4OipGeuQki84CetcUv4a-123">
          <mxGeometry width="14" height="30" as="geometry">
            <mxRectangle width="14" height="30" as="alternateBounds" />
          </mxGeometry>
        </mxCell>
        <mxCell id="4OipGeuQki84CetcUv4a-125" value="RZOPNO" style="shape=partialRectangle;html=1;whiteSpace=wrap;connectable=0;fillColor=none;top=0;left=0;bottom=0;right=0;align=left;spacingLeft=6;overflow=hidden;fontSize=10;" vertex="1" parent="4OipGeuQki84CetcUv4a-123">
          <mxGeometry x="14" width="62" height="30" as="geometry">
            <mxRectangle width="62" height="30" as="alternateBounds" />
          </mxGeometry>
        </mxCell>
        <mxCell id="4OipGeuQki84CetcUv4a-126" style="shape=partialRectangle;html=1;whiteSpace=wrap;connectable=0;fillColor=none;top=0;left=0;bottom=0;right=0;align=left;spacingLeft=6;overflow=hidden;fontSize=10;" vertex="1" parent="4OipGeuQki84CetcUv4a-123">
          <mxGeometry x="76" width="44" height="30" as="geometry">
            <mxRectangle width="44" height="30" as="alternateBounds" />
          </mxGeometry>
        </mxCell>
        <mxCell id="4OipGeuQki84CetcUv4a-127" style="shape=tableRow;horizontal=0;startSize=0;swimlaneHead=0;swimlaneBody=0;top=0;left=0;bottom=0;right=0;collapsible=0;dropTarget=0;fillColor=none;points=[[0,0.5],[1,0.5]];portConstraint=eastwest;fontSize=10;" vertex="1" parent="4OipGeuQki84CetcUv4a-102">
          <mxGeometry y="211" width="120" height="30" as="geometry" />
        </mxCell>
        <mxCell id="4OipGeuQki84CetcUv4a-128" style="shape=partialRectangle;html=1;whiteSpace=wrap;connectable=0;fillColor=none;top=0;left=0;bottom=0;right=0;overflow=hidden;fontSize=10;" vertex="1" parent="4OipGeuQki84CetcUv4a-127">
          <mxGeometry width="14" height="30" as="geometry">
            <mxRectangle width="14" height="30" as="alternateBounds" />
          </mxGeometry>
        </mxCell>
        <mxCell id="4OipGeuQki84CetcUv4a-129" value="PEFIN" style="shape=partialRectangle;html=1;whiteSpace=wrap;connectable=0;fillColor=none;top=0;left=0;bottom=0;right=0;align=left;spacingLeft=6;overflow=hidden;fontSize=10;" vertex="1" parent="4OipGeuQki84CetcUv4a-127">
          <mxGeometry x="14" width="62" height="30" as="geometry">
            <mxRectangle width="62" height="30" as="alternateBounds" />
          </mxGeometry>
        </mxCell>
        <mxCell id="4OipGeuQki84CetcUv4a-130" style="shape=partialRectangle;html=1;whiteSpace=wrap;connectable=0;fillColor=none;top=0;left=0;bottom=0;right=0;align=left;spacingLeft=6;overflow=hidden;fontSize=10;" vertex="1" parent="4OipGeuQki84CetcUv4a-127">
          <mxGeometry x="76" width="44" height="30" as="geometry">
            <mxRectangle width="44" height="30" as="alternateBounds" />
          </mxGeometry>
        </mxCell>
        <mxCell id="4OipGeuQki84CetcUv4a-131" style="shape=tableRow;horizontal=0;startSize=0;swimlaneHead=0;swimlaneBody=0;top=0;left=0;bottom=0;right=0;collapsible=0;dropTarget=0;fillColor=none;points=[[0,0.5],[1,0.5]];portConstraint=eastwest;fontSize=10;" vertex="1" parent="4OipGeuQki84CetcUv4a-102">
          <mxGeometry y="241" width="120" height="30" as="geometry" />
        </mxCell>
        <mxCell id="4OipGeuQki84CetcUv4a-132" style="shape=partialRectangle;html=1;whiteSpace=wrap;connectable=0;fillColor=none;top=0;left=0;bottom=0;right=0;overflow=hidden;fontSize=10;" vertex="1" parent="4OipGeuQki84CetcUv4a-131">
          <mxGeometry width="14" height="30" as="geometry">
            <mxRectangle width="14" height="30" as="alternateBounds" />
          </mxGeometry>
        </mxCell>
        <mxCell id="4OipGeuQki84CetcUv4a-133" value="PEFOUT" style="shape=partialRectangle;html=1;whiteSpace=wrap;connectable=0;fillColor=none;top=0;left=0;bottom=0;right=0;align=left;spacingLeft=6;overflow=hidden;fontSize=10;" vertex="1" parent="4OipGeuQki84CetcUv4a-131">
          <mxGeometry x="14" width="62" height="30" as="geometry">
            <mxRectangle width="62" height="30" as="alternateBounds" />
          </mxGeometry>
        </mxCell>
        <mxCell id="4OipGeuQki84CetcUv4a-134" style="shape=partialRectangle;html=1;whiteSpace=wrap;connectable=0;fillColor=none;top=0;left=0;bottom=0;right=0;align=left;spacingLeft=6;overflow=hidden;fontSize=10;" vertex="1" parent="4OipGeuQki84CetcUv4a-131">
          <mxGeometry x="76" width="44" height="30" as="geometry">
            <mxRectangle width="44" height="30" as="alternateBounds" />
          </mxGeometry>
        </mxCell>
        <mxCell id="4OipGeuQki84CetcUv4a-135" style="shape=tableRow;horizontal=0;startSize=0;swimlaneHead=0;swimlaneBody=0;top=0;left=0;bottom=0;right=0;collapsible=0;dropTarget=0;fillColor=none;points=[[0,0.5],[1,0.5]];portConstraint=eastwest;fontSize=10;" vertex="1" parent="4OipGeuQki84CetcUv4a-102">
          <mxGeometry y="271" width="120" height="30" as="geometry" />
        </mxCell>
        <mxCell id="4OipGeuQki84CetcUv4a-136" style="shape=partialRectangle;html=1;whiteSpace=wrap;connectable=0;fillColor=none;top=0;left=0;bottom=0;right=0;overflow=hidden;fontSize=10;" vertex="1" parent="4OipGeuQki84CetcUv4a-135">
          <mxGeometry width="14" height="30" as="geometry">
            <mxRectangle width="14" height="30" as="alternateBounds" />
          </mxGeometry>
        </mxCell>
        <mxCell id="4OipGeuQki84CetcUv4a-137" value="PSSCRF" style="shape=partialRectangle;html=1;whiteSpace=wrap;connectable=0;fillColor=none;top=0;left=0;bottom=0;right=0;align=left;spacingLeft=6;overflow=hidden;fontSize=10;" vertex="1" parent="4OipGeuQki84CetcUv4a-135">
          <mxGeometry x="14" width="62" height="30" as="geometry">
            <mxRectangle width="62" height="30" as="alternateBounds" />
          </mxGeometry>
        </mxCell>
        <mxCell id="4OipGeuQki84CetcUv4a-138" style="shape=partialRectangle;html=1;whiteSpace=wrap;connectable=0;fillColor=none;top=0;left=0;bottom=0;right=0;align=left;spacingLeft=6;overflow=hidden;fontSize=10;" vertex="1" parent="4OipGeuQki84CetcUv4a-135">
          <mxGeometry x="76" width="44" height="30" as="geometry">
            <mxRectangle width="44" height="30" as="alternateBounds" />
          </mxGeometry>
        </mxCell>
        <mxCell id="4OipGeuQki84CetcUv4a-192" value="IC100M" style="shape=table;startSize=30;container=1;collapsible=0;childLayout=tableLayout;fixedRows=1;rowLines=0;fontStyle=1;fillColor=#FFFFFF;fontSize=10;" vertex="1" parent="1">
          <mxGeometry x="290" y="20" width="130" height="361" as="geometry" />
        </mxCell>
        <mxCell id="4OipGeuQki84CetcUv4a-193" value="" style="shape=tableRow;horizontal=0;startSize=0;swimlaneHead=0;swimlaneBody=0;top=0;left=0;bottom=0;right=0;collapsible=0;dropTarget=0;fillColor=none;points=[[0,0.5],[1,0.5]];portConstraint=eastwest;fontSize=10;" vertex="1" parent="4OipGeuQki84CetcUv4a-192">
          <mxGeometry y="30" width="130" height="30" as="geometry" />
        </mxCell>
        <mxCell id="4OipGeuQki84CetcUv4a-194" value="" style="shape=partialRectangle;html=1;whiteSpace=wrap;connectable=0;fillColor=none;top=0;left=0;bottom=0;right=0;overflow=hidden;pointerEvents=1;fontSize=10;" vertex="1" parent="4OipGeuQki84CetcUv4a-193">
          <mxGeometry width="16" height="30" as="geometry">
            <mxRectangle width="16" height="30" as="alternateBounds" />
          </mxGeometry>
        </mxCell>
        <mxCell id="4OipGeuQki84CetcUv4a-195" value="HZORNO" style="shape=partialRectangle;html=1;whiteSpace=wrap;connectable=0;fillColor=none;top=0;left=0;bottom=0;right=0;align=left;spacingLeft=6;overflow=hidden;fontSize=10;" vertex="1" parent="4OipGeuQki84CetcUv4a-193">
          <mxGeometry x="16" width="66" height="30" as="geometry">
            <mxRectangle width="66" height="30" as="alternateBounds" />
          </mxGeometry>
        </mxCell>
        <mxCell id="4OipGeuQki84CetcUv4a-196" style="shape=partialRectangle;html=1;whiteSpace=wrap;connectable=0;fillColor=none;top=0;left=0;bottom=0;right=0;align=left;spacingLeft=6;overflow=hidden;fontSize=10;" vertex="1" parent="4OipGeuQki84CetcUv4a-193">
          <mxGeometry x="82" width="48" height="30" as="geometry">
            <mxRectangle width="48" height="30" as="alternateBounds" />
          </mxGeometry>
        </mxCell>
        <mxCell id="4OipGeuQki84CetcUv4a-197" value="" style="shape=tableRow;horizontal=0;startSize=0;swimlaneHead=0;swimlaneBody=0;top=0;left=0;bottom=0;right=0;collapsible=0;dropTarget=0;fillColor=none;points=[[0,0.5],[1,0.5]];portConstraint=eastwest;fontSize=10;" vertex="1" parent="4OipGeuQki84CetcUv4a-192">
          <mxGeometry y="60" width="130" height="31" as="geometry" />
        </mxCell>
        <mxCell id="4OipGeuQki84CetcUv4a-198" value="" style="shape=partialRectangle;html=1;whiteSpace=wrap;connectable=0;fillColor=none;top=0;left=0;bottom=0;right=0;overflow=hidden;fontSize=10;" vertex="1" parent="4OipGeuQki84CetcUv4a-197">
          <mxGeometry width="16" height="31" as="geometry">
            <mxRectangle width="16" height="31" as="alternateBounds" />
          </mxGeometry>
        </mxCell>
        <mxCell id="4OipGeuQki84CetcUv4a-199" value="HZORNO" style="shape=partialRectangle;html=1;whiteSpace=wrap;connectable=0;fillColor=none;top=0;left=0;bottom=0;right=0;align=left;spacingLeft=6;overflow=hidden;fontSize=10;" vertex="1" parent="4OipGeuQki84CetcUv4a-197">
          <mxGeometry x="16" width="66" height="31" as="geometry">
            <mxRectangle width="66" height="31" as="alternateBounds" />
          </mxGeometry>
        </mxCell>
        <mxCell id="4OipGeuQki84CetcUv4a-200" style="shape=partialRectangle;html=1;whiteSpace=wrap;connectable=0;fillColor=none;top=0;left=0;bottom=0;right=0;align=left;spacingLeft=6;overflow=hidden;fontSize=10;" vertex="1" parent="4OipGeuQki84CetcUv4a-197">
          <mxGeometry x="82" width="48" height="31" as="geometry">
            <mxRectangle width="48" height="31" as="alternateBounds" />
          </mxGeometry>
        </mxCell>
        <mxCell id="4OipGeuQki84CetcUv4a-201" value="" style="shape=tableRow;horizontal=0;startSize=0;swimlaneHead=0;swimlaneBody=0;top=0;left=0;bottom=0;right=0;collapsible=0;dropTarget=0;fillColor=none;points=[[0,0.5],[1,0.5]];portConstraint=eastwest;fontSize=10;" vertex="1" parent="4OipGeuQki84CetcUv4a-192">
          <mxGeometry y="91" width="130" height="30" as="geometry" />
        </mxCell>
        <mxCell id="4OipGeuQki84CetcUv4a-202" value="" style="shape=partialRectangle;html=1;whiteSpace=wrap;connectable=0;fillColor=none;top=0;left=0;bottom=0;right=0;overflow=hidden;fontSize=10;" vertex="1" parent="4OipGeuQki84CetcUv4a-201">
          <mxGeometry width="16" height="30" as="geometry">
            <mxRectangle width="16" height="30" as="alternateBounds" />
          </mxGeometry>
        </mxCell>
        <mxCell id="4OipGeuQki84CetcUv4a-203" value="HZWHSE" style="shape=partialRectangle;html=1;whiteSpace=wrap;connectable=0;fillColor=none;top=0;left=0;bottom=0;right=0;align=left;spacingLeft=6;overflow=hidden;fontSize=10;" vertex="1" parent="4OipGeuQki84CetcUv4a-201">
          <mxGeometry x="16" width="66" height="30" as="geometry">
            <mxRectangle width="66" height="30" as="alternateBounds" />
          </mxGeometry>
        </mxCell>
        <mxCell id="4OipGeuQki84CetcUv4a-204" style="shape=partialRectangle;html=1;whiteSpace=wrap;connectable=0;fillColor=none;top=0;left=0;bottom=0;right=0;align=left;spacingLeft=6;overflow=hidden;fontSize=10;" vertex="1" parent="4OipGeuQki84CetcUv4a-201">
          <mxGeometry x="82" width="48" height="30" as="geometry">
            <mxRectangle width="48" height="30" as="alternateBounds" />
          </mxGeometry>
        </mxCell>
        <mxCell id="4OipGeuQki84CetcUv4a-205" style="shape=tableRow;horizontal=0;startSize=0;swimlaneHead=0;swimlaneBody=0;top=0;left=0;bottom=0;right=0;collapsible=0;dropTarget=0;fillColor=none;points=[[0,0.5],[1,0.5]];portConstraint=eastwest;fontSize=10;" vertex="1" parent="4OipGeuQki84CetcUv4a-192">
          <mxGeometry y="121" width="130" height="30" as="geometry" />
        </mxCell>
        <mxCell id="4OipGeuQki84CetcUv4a-206" style="shape=partialRectangle;html=1;whiteSpace=wrap;connectable=0;fillColor=none;top=0;left=0;bottom=0;right=0;overflow=hidden;fontSize=10;" vertex="1" parent="4OipGeuQki84CetcUv4a-205">
          <mxGeometry width="16" height="30" as="geometry">
            <mxRectangle width="16" height="30" as="alternateBounds" />
          </mxGeometry>
        </mxCell>
        <mxCell id="4OipGeuQki84CetcUv4a-207" value="HTYPE" style="shape=partialRectangle;html=1;whiteSpace=wrap;connectable=0;fillColor=none;top=0;left=0;bottom=0;right=0;align=left;spacingLeft=6;overflow=hidden;fontSize=10;" vertex="1" parent="4OipGeuQki84CetcUv4a-205">
          <mxGeometry x="16" width="66" height="30" as="geometry">
            <mxRectangle width="66" height="30" as="alternateBounds" />
          </mxGeometry>
        </mxCell>
        <mxCell id="4OipGeuQki84CetcUv4a-208" style="shape=partialRectangle;html=1;whiteSpace=wrap;connectable=0;fillColor=none;top=0;left=0;bottom=0;right=0;align=left;spacingLeft=6;overflow=hidden;fontSize=10;" vertex="1" parent="4OipGeuQki84CetcUv4a-205">
          <mxGeometry x="82" width="48" height="30" as="geometry">
            <mxRectangle width="48" height="30" as="alternateBounds" />
          </mxGeometry>
        </mxCell>
        <mxCell id="4OipGeuQki84CetcUv4a-209" style="shape=tableRow;horizontal=0;startSize=0;swimlaneHead=0;swimlaneBody=0;top=0;left=0;bottom=0;right=0;collapsible=0;dropTarget=0;fillColor=none;points=[[0,0.5],[1,0.5]];portConstraint=eastwest;fontSize=10;" vertex="1" parent="4OipGeuQki84CetcUv4a-192">
          <mxGeometry y="151" width="130" height="30" as="geometry" />
        </mxCell>
        <mxCell id="4OipGeuQki84CetcUv4a-210" style="shape=partialRectangle;html=1;whiteSpace=wrap;connectable=0;fillColor=none;top=0;left=0;bottom=0;right=0;overflow=hidden;fontSize=10;" vertex="1" parent="4OipGeuQki84CetcUv4a-209">
          <mxGeometry width="16" height="30" as="geometry">
            <mxRectangle width="16" height="30" as="alternateBounds" />
          </mxGeometry>
        </mxCell>
        <mxCell id="4OipGeuQki84CetcUv4a-211" value="HSTATS" style="shape=partialRectangle;html=1;whiteSpace=wrap;connectable=0;fillColor=none;top=0;left=0;bottom=0;right=0;align=left;spacingLeft=6;overflow=hidden;fontSize=10;" vertex="1" parent="4OipGeuQki84CetcUv4a-209">
          <mxGeometry x="16" width="66" height="30" as="geometry">
            <mxRectangle width="66" height="30" as="alternateBounds" />
          </mxGeometry>
        </mxCell>
        <mxCell id="4OipGeuQki84CetcUv4a-212" style="shape=partialRectangle;html=1;whiteSpace=wrap;connectable=0;fillColor=none;top=0;left=0;bottom=0;right=0;align=left;spacingLeft=6;overflow=hidden;fontSize=10;" vertex="1" parent="4OipGeuQki84CetcUv4a-209">
          <mxGeometry x="82" width="48" height="30" as="geometry">
            <mxRectangle width="48" height="30" as="alternateBounds" />
          </mxGeometry>
        </mxCell>
        <mxCell id="4OipGeuQki84CetcUv4a-213" style="shape=tableRow;horizontal=0;startSize=0;swimlaneHead=0;swimlaneBody=0;top=0;left=0;bottom=0;right=0;collapsible=0;dropTarget=0;fillColor=none;points=[[0,0.5],[1,0.5]];portConstraint=eastwest;fontSize=10;" vertex="1" parent="4OipGeuQki84CetcUv4a-192">
          <mxGeometry y="181" width="130" height="30" as="geometry" />
        </mxCell>
        <mxCell id="4OipGeuQki84CetcUv4a-214" style="shape=partialRectangle;html=1;whiteSpace=wrap;connectable=0;fillColor=none;top=0;left=0;bottom=0;right=0;overflow=hidden;fontSize=10;" vertex="1" parent="4OipGeuQki84CetcUv4a-213">
          <mxGeometry width="16" height="30" as="geometry">
            <mxRectangle width="16" height="30" as="alternateBounds" />
          </mxGeometry>
        </mxCell>
        <mxCell id="4OipGeuQki84CetcUv4a-215" value="HZPPN" style="shape=partialRectangle;html=1;whiteSpace=wrap;connectable=0;fillColor=none;top=0;left=0;bottom=0;right=0;align=left;spacingLeft=6;overflow=hidden;fontSize=10;" vertex="1" parent="4OipGeuQki84CetcUv4a-213">
          <mxGeometry x="16" width="66" height="30" as="geometry">
            <mxRectangle width="66" height="30" as="alternateBounds" />
          </mxGeometry>
        </mxCell>
        <mxCell id="4OipGeuQki84CetcUv4a-216" style="shape=partialRectangle;html=1;whiteSpace=wrap;connectable=0;fillColor=none;top=0;left=0;bottom=0;right=0;align=left;spacingLeft=6;overflow=hidden;fontSize=10;" vertex="1" parent="4OipGeuQki84CetcUv4a-213">
          <mxGeometry x="82" width="48" height="30" as="geometry">
            <mxRectangle width="48" height="30" as="alternateBounds" />
          </mxGeometry>
        </mxCell>
        <mxCell id="4OipGeuQki84CetcUv4a-217" style="shape=tableRow;horizontal=0;startSize=0;swimlaneHead=0;swimlaneBody=0;top=0;left=0;bottom=0;right=0;collapsible=0;dropTarget=0;fillColor=none;points=[[0,0.5],[1,0.5]];portConstraint=eastwest;fontSize=10;" vertex="1" parent="4OipGeuQki84CetcUv4a-192">
          <mxGeometry y="211" width="130" height="30" as="geometry" />
        </mxCell>
        <mxCell id="4OipGeuQki84CetcUv4a-218" style="shape=partialRectangle;html=1;whiteSpace=wrap;connectable=0;fillColor=none;top=0;left=0;bottom=0;right=0;overflow=hidden;fontSize=10;" vertex="1" parent="4OipGeuQki84CetcUv4a-217">
          <mxGeometry width="16" height="30" as="geometry">
            <mxRectangle width="16" height="30" as="alternateBounds" />
          </mxGeometry>
        </mxCell>
        <mxCell id="4OipGeuQki84CetcUv4a-219" value="HORDQ" style="shape=partialRectangle;html=1;whiteSpace=wrap;connectable=0;fillColor=none;top=0;left=0;bottom=0;right=0;align=left;spacingLeft=6;overflow=hidden;fontSize=10;" vertex="1" parent="4OipGeuQki84CetcUv4a-217">
          <mxGeometry x="16" width="66" height="30" as="geometry">
            <mxRectangle width="66" height="30" as="alternateBounds" />
          </mxGeometry>
        </mxCell>
        <mxCell id="4OipGeuQki84CetcUv4a-220" style="shape=partialRectangle;html=1;whiteSpace=wrap;connectable=0;fillColor=none;top=0;left=0;bottom=0;right=0;align=left;spacingLeft=6;overflow=hidden;fontSize=10;" vertex="1" parent="4OipGeuQki84CetcUv4a-217">
          <mxGeometry x="82" width="48" height="30" as="geometry">
            <mxRectangle width="48" height="30" as="alternateBounds" />
          </mxGeometry>
        </mxCell>
        <mxCell id="4OipGeuQki84CetcUv4a-221" style="shape=tableRow;horizontal=0;startSize=0;swimlaneHead=0;swimlaneBody=0;top=0;left=0;bottom=0;right=0;collapsible=0;dropTarget=0;fillColor=none;points=[[0,0.5],[1,0.5]];portConstraint=eastwest;fontSize=10;" vertex="1" parent="4OipGeuQki84CetcUv4a-192">
          <mxGeometry y="241" width="130" height="30" as="geometry" />
        </mxCell>
        <mxCell id="4OipGeuQki84CetcUv4a-222" style="shape=partialRectangle;html=1;whiteSpace=wrap;connectable=0;fillColor=none;top=0;left=0;bottom=0;right=0;overflow=hidden;fontSize=10;" vertex="1" parent="4OipGeuQki84CetcUv4a-221">
          <mxGeometry width="16" height="30" as="geometry">
            <mxRectangle width="16" height="30" as="alternateBounds" />
          </mxGeometry>
        </mxCell>
        <mxCell id="4OipGeuQki84CetcUv4a-223" value="HORDT" style="shape=partialRectangle;html=1;whiteSpace=wrap;connectable=0;fillColor=none;top=0;left=0;bottom=0;right=0;align=left;spacingLeft=6;overflow=hidden;fontSize=10;" vertex="1" parent="4OipGeuQki84CetcUv4a-221">
          <mxGeometry x="16" width="66" height="30" as="geometry">
            <mxRectangle width="66" height="30" as="alternateBounds" />
          </mxGeometry>
        </mxCell>
        <mxCell id="4OipGeuQki84CetcUv4a-224" style="shape=partialRectangle;html=1;whiteSpace=wrap;connectable=0;fillColor=none;top=0;left=0;bottom=0;right=0;align=left;spacingLeft=6;overflow=hidden;fontSize=10;" vertex="1" parent="4OipGeuQki84CetcUv4a-221">
          <mxGeometry x="82" width="48" height="30" as="geometry">
            <mxRectangle width="48" height="30" as="alternateBounds" />
          </mxGeometry>
        </mxCell>
        <mxCell id="4OipGeuQki84CetcUv4a-225" style="shape=tableRow;horizontal=0;startSize=0;swimlaneHead=0;swimlaneBody=0;top=0;left=0;bottom=0;right=0;collapsible=0;dropTarget=0;fillColor=none;points=[[0,0.5],[1,0.5]];portConstraint=eastwest;fontSize=10;" vertex="1" parent="4OipGeuQki84CetcUv4a-192">
          <mxGeometry y="271" width="130" height="30" as="geometry" />
        </mxCell>
        <mxCell id="4OipGeuQki84CetcUv4a-226" style="shape=partialRectangle;html=1;whiteSpace=wrap;connectable=0;fillColor=none;top=0;left=0;bottom=0;right=0;overflow=hidden;fontSize=10;" vertex="1" parent="4OipGeuQki84CetcUv4a-225">
          <mxGeometry width="16" height="30" as="geometry">
            <mxRectangle width="16" height="30" as="alternateBounds" />
          </mxGeometry>
        </mxCell>
        <mxCell id="4OipGeuQki84CetcUv4a-227" value="HSTDT" style="shape=partialRectangle;html=1;whiteSpace=wrap;connectable=0;fillColor=none;top=0;left=0;bottom=0;right=0;align=left;spacingLeft=6;overflow=hidden;fontSize=10;" vertex="1" parent="4OipGeuQki84CetcUv4a-225">
          <mxGeometry x="16" width="66" height="30" as="geometry">
            <mxRectangle width="66" height="30" as="alternateBounds" />
          </mxGeometry>
        </mxCell>
        <mxCell id="4OipGeuQki84CetcUv4a-228" style="shape=partialRectangle;html=1;whiteSpace=wrap;connectable=0;fillColor=none;top=0;left=0;bottom=0;right=0;align=left;spacingLeft=6;overflow=hidden;fontSize=10;" vertex="1" parent="4OipGeuQki84CetcUv4a-225">
          <mxGeometry x="82" width="48" height="30" as="geometry">
            <mxRectangle width="48" height="30" as="alternateBounds" />
          </mxGeometry>
        </mxCell>
        <mxCell id="4OipGeuQki84CetcUv4a-230" style="shape=tableRow;horizontal=0;startSize=0;swimlaneHead=0;swimlaneBody=0;top=0;left=0;bottom=0;right=0;collapsible=0;dropTarget=0;fillColor=none;points=[[0,0.5],[1,0.5]];portConstraint=eastwest;fontSize=10;" vertex="1" parent="4OipGeuQki84CetcUv4a-192">
          <mxGeometry y="301" width="130" height="30" as="geometry" />
        </mxCell>
        <mxCell id="4OipGeuQki84CetcUv4a-231" style="shape=partialRectangle;html=1;whiteSpace=wrap;connectable=0;fillColor=none;top=0;left=0;bottom=0;right=0;overflow=hidden;fontSize=10;" vertex="1" parent="4OipGeuQki84CetcUv4a-230">
          <mxGeometry width="16" height="30" as="geometry">
            <mxRectangle width="16" height="30" as="alternateBounds" />
          </mxGeometry>
        </mxCell>
        <mxCell id="4OipGeuQki84CetcUv4a-232" value="HDUEDT" style="shape=partialRectangle;html=1;whiteSpace=wrap;connectable=0;fillColor=none;top=0;left=0;bottom=0;right=0;align=left;spacingLeft=6;overflow=hidden;fontSize=10;" vertex="1" parent="4OipGeuQki84CetcUv4a-230">
          <mxGeometry x="16" width="66" height="30" as="geometry">
            <mxRectangle width="66" height="30" as="alternateBounds" />
          </mxGeometry>
        </mxCell>
        <mxCell id="4OipGeuQki84CetcUv4a-233" style="shape=partialRectangle;html=1;whiteSpace=wrap;connectable=0;fillColor=none;top=0;left=0;bottom=0;right=0;align=left;spacingLeft=6;overflow=hidden;fontSize=10;" vertex="1" parent="4OipGeuQki84CetcUv4a-230">
          <mxGeometry x="82" width="48" height="30" as="geometry">
            <mxRectangle width="48" height="30" as="alternateBounds" />
          </mxGeometry>
        </mxCell>
        <mxCell id="4OipGeuQki84CetcUv4a-234" style="shape=tableRow;horizontal=0;startSize=0;swimlaneHead=0;swimlaneBody=0;top=0;left=0;bottom=0;right=0;collapsible=0;dropTarget=0;fillColor=none;points=[[0,0.5],[1,0.5]];portConstraint=eastwest;fontSize=10;" vertex="1" parent="4OipGeuQki84CetcUv4a-192">
          <mxGeometry y="331" width="130" height="30" as="geometry" />
        </mxCell>
        <mxCell id="4OipGeuQki84CetcUv4a-235" style="shape=partialRectangle;html=1;whiteSpace=wrap;connectable=0;fillColor=none;top=0;left=0;bottom=0;right=0;overflow=hidden;fontSize=10;" vertex="1" parent="4OipGeuQki84CetcUv4a-234">
          <mxGeometry width="16" height="30" as="geometry">
            <mxRectangle width="16" height="30" as="alternateBounds" />
          </mxGeometry>
        </mxCell>
        <mxCell id="4OipGeuQki84CetcUv4a-236" value="HTQR" style="shape=partialRectangle;html=1;whiteSpace=wrap;connectable=0;fillColor=none;top=0;left=0;bottom=0;right=0;align=left;spacingLeft=6;overflow=hidden;fontSize=10;" vertex="1" parent="4OipGeuQki84CetcUv4a-234">
          <mxGeometry x="16" width="66" height="30" as="geometry">
            <mxRectangle width="66" height="30" as="alternateBounds" />
          </mxGeometry>
        </mxCell>
        <mxCell id="4OipGeuQki84CetcUv4a-237" style="shape=partialRectangle;html=1;whiteSpace=wrap;connectable=0;fillColor=none;top=0;left=0;bottom=0;right=0;align=left;spacingLeft=6;overflow=hidden;fontSize=10;" vertex="1" parent="4OipGeuQki84CetcUv4a-234">
          <mxGeometry x="82" width="48" height="30" as="geometry">
            <mxRectangle width="48" height="30" as="alternateBounds" />
          </mxGeometry>
        </mxCell>
        <mxCell id="4OipGeuQki84CetcUv4a-239" value="IC130M" style="shape=table;startSize=30;container=1;collapsible=0;childLayout=tableLayout;fixedRows=1;rowLines=0;fontStyle=1;fillColor=#FFFFFF;fontSize=10;" vertex="1" parent="1">
          <mxGeometry x="460" y="20" width="120" height="241" as="geometry" />
        </mxCell>
        <mxCell id="4OipGeuQki84CetcUv4a-240" value="" style="shape=tableRow;horizontal=0;startSize=0;swimlaneHead=0;swimlaneBody=0;top=0;left=0;bottom=0;right=0;collapsible=0;dropTarget=0;fillColor=none;points=[[0,0.5],[1,0.5]];portConstraint=eastwest;" vertex="1" parent="4OipGeuQki84CetcUv4a-239">
          <mxGeometry y="30" width="120" height="30" as="geometry" />
        </mxCell>
        <mxCell id="4OipGeuQki84CetcUv4a-241" value="" style="shape=partialRectangle;html=1;whiteSpace=wrap;connectable=0;fillColor=none;top=0;left=0;bottom=0;right=0;overflow=hidden;pointerEvents=1;fontSize=10;" vertex="1" parent="4OipGeuQki84CetcUv4a-240">
          <mxGeometry width="14" height="30" as="geometry">
            <mxRectangle width="14" height="30" as="alternateBounds" />
          </mxGeometry>
        </mxCell>
        <mxCell id="4OipGeuQki84CetcUv4a-242" value="&lt;span style=&quot;font-size: 10px&quot;&gt;LLPPN&lt;/span&gt;" style="shape=partialRectangle;html=1;whiteSpace=wrap;connectable=0;fillColor=none;top=0;left=0;bottom=0;right=0;align=left;spacingLeft=6;overflow=hidden;fontSize=10;" vertex="1" parent="4OipGeuQki84CetcUv4a-240">
          <mxGeometry x="14" width="62" height="30" as="geometry">
            <mxRectangle width="62" height="30" as="alternateBounds" />
          </mxGeometry>
        </mxCell>
        <mxCell id="4OipGeuQki84CetcUv4a-243" style="shape=partialRectangle;html=1;whiteSpace=wrap;connectable=0;fillColor=none;top=0;left=0;bottom=0;right=0;align=left;spacingLeft=6;overflow=hidden;" vertex="1" parent="4OipGeuQki84CetcUv4a-240">
          <mxGeometry x="76" width="44" height="30" as="geometry">
            <mxRectangle width="44" height="30" as="alternateBounds" />
          </mxGeometry>
        </mxCell>
        <mxCell id="4OipGeuQki84CetcUv4a-244" value="" style="shape=tableRow;horizontal=0;startSize=0;swimlaneHead=0;swimlaneBody=0;top=0;left=0;bottom=0;right=0;collapsible=0;dropTarget=0;fillColor=none;points=[[0,0.5],[1,0.5]];portConstraint=eastwest;" vertex="1" parent="4OipGeuQki84CetcUv4a-239">
          <mxGeometry y="60" width="120" height="31" as="geometry" />
        </mxCell>
        <mxCell id="4OipGeuQki84CetcUv4a-245" value="" style="shape=partialRectangle;html=1;whiteSpace=wrap;connectable=0;fillColor=none;top=0;left=0;bottom=0;right=0;overflow=hidden;fontSize=10;" vertex="1" parent="4OipGeuQki84CetcUv4a-244">
          <mxGeometry width="14" height="31" as="geometry">
            <mxRectangle width="14" height="31" as="alternateBounds" />
          </mxGeometry>
        </mxCell>
        <mxCell id="4OipGeuQki84CetcUv4a-246" value="LLSTLC" style="shape=partialRectangle;html=1;whiteSpace=wrap;connectable=0;fillColor=none;top=0;left=0;bottom=0;right=0;align=left;spacingLeft=6;overflow=hidden;fontSize=10;" vertex="1" parent="4OipGeuQki84CetcUv4a-244">
          <mxGeometry x="14" width="62" height="31" as="geometry">
            <mxRectangle width="62" height="31" as="alternateBounds" />
          </mxGeometry>
        </mxCell>
        <mxCell id="4OipGeuQki84CetcUv4a-247" style="shape=partialRectangle;html=1;whiteSpace=wrap;connectable=0;fillColor=none;top=0;left=0;bottom=0;right=0;align=left;spacingLeft=6;overflow=hidden;" vertex="1" parent="4OipGeuQki84CetcUv4a-244">
          <mxGeometry x="76" width="44" height="31" as="geometry">
            <mxRectangle width="44" height="31" as="alternateBounds" />
          </mxGeometry>
        </mxCell>
        <mxCell id="4OipGeuQki84CetcUv4a-248" value="" style="shape=tableRow;horizontal=0;startSize=0;swimlaneHead=0;swimlaneBody=0;top=0;left=0;bottom=0;right=0;collapsible=0;dropTarget=0;fillColor=none;points=[[0,0.5],[1,0.5]];portConstraint=eastwest;" vertex="1" parent="4OipGeuQki84CetcUv4a-239">
          <mxGeometry y="91" width="120" height="30" as="geometry" />
        </mxCell>
        <mxCell id="4OipGeuQki84CetcUv4a-249" value="" style="shape=partialRectangle;html=1;whiteSpace=wrap;connectable=0;fillColor=none;top=0;left=0;bottom=0;right=0;overflow=hidden;fontSize=10;" vertex="1" parent="4OipGeuQki84CetcUv4a-248">
          <mxGeometry width="14" height="30" as="geometry">
            <mxRectangle width="14" height="30" as="alternateBounds" />
          </mxGeometry>
        </mxCell>
        <mxCell id="4OipGeuQki84CetcUv4a-250" value="LLWHNO" style="shape=partialRectangle;html=1;whiteSpace=wrap;connectable=0;fillColor=none;top=0;left=0;bottom=0;right=0;align=left;spacingLeft=6;overflow=hidden;fontSize=10;" vertex="1" parent="4OipGeuQki84CetcUv4a-248">
          <mxGeometry x="14" width="62" height="30" as="geometry">
            <mxRectangle width="62" height="30" as="alternateBounds" />
          </mxGeometry>
        </mxCell>
        <mxCell id="4OipGeuQki84CetcUv4a-251" style="shape=partialRectangle;html=1;whiteSpace=wrap;connectable=0;fillColor=none;top=0;left=0;bottom=0;right=0;align=left;spacingLeft=6;overflow=hidden;" vertex="1" parent="4OipGeuQki84CetcUv4a-248">
          <mxGeometry x="76" width="44" height="30" as="geometry">
            <mxRectangle width="44" height="30" as="alternateBounds" />
          </mxGeometry>
        </mxCell>
        <mxCell id="4OipGeuQki84CetcUv4a-252" style="shape=tableRow;horizontal=0;startSize=0;swimlaneHead=0;swimlaneBody=0;top=0;left=0;bottom=0;right=0;collapsible=0;dropTarget=0;fillColor=none;points=[[0,0.5],[1,0.5]];portConstraint=eastwest;" vertex="1" parent="4OipGeuQki84CetcUv4a-239">
          <mxGeometry y="121" width="120" height="30" as="geometry" />
        </mxCell>
        <mxCell id="4OipGeuQki84CetcUv4a-253" style="shape=partialRectangle;html=1;whiteSpace=wrap;connectable=0;fillColor=none;top=0;left=0;bottom=0;right=0;overflow=hidden;fontSize=10;" vertex="1" parent="4OipGeuQki84CetcUv4a-252">
          <mxGeometry width="14" height="30" as="geometry">
            <mxRectangle width="14" height="30" as="alternateBounds" />
          </mxGeometry>
        </mxCell>
        <mxCell id="4OipGeuQki84CetcUv4a-254" value="LLBLT1" style="shape=partialRectangle;html=1;whiteSpace=wrap;connectable=0;fillColor=none;top=0;left=0;bottom=0;right=0;align=left;spacingLeft=6;overflow=hidden;fontSize=10;" vertex="1" parent="4OipGeuQki84CetcUv4a-252">
          <mxGeometry x="14" width="62" height="30" as="geometry">
            <mxRectangle width="62" height="30" as="alternateBounds" />
          </mxGeometry>
        </mxCell>
        <mxCell id="4OipGeuQki84CetcUv4a-255" style="shape=partialRectangle;html=1;whiteSpace=wrap;connectable=0;fillColor=none;top=0;left=0;bottom=0;right=0;align=left;spacingLeft=6;overflow=hidden;" vertex="1" parent="4OipGeuQki84CetcUv4a-252">
          <mxGeometry x="76" width="44" height="30" as="geometry">
            <mxRectangle width="44" height="30" as="alternateBounds" />
          </mxGeometry>
        </mxCell>
        <mxCell id="4OipGeuQki84CetcUv4a-256" style="shape=tableRow;horizontal=0;startSize=0;swimlaneHead=0;swimlaneBody=0;top=0;left=0;bottom=0;right=0;collapsible=0;dropTarget=0;fillColor=none;points=[[0,0.5],[1,0.5]];portConstraint=eastwest;" vertex="1" parent="4OipGeuQki84CetcUv4a-239">
          <mxGeometry y="151" width="120" height="30" as="geometry" />
        </mxCell>
        <mxCell id="4OipGeuQki84CetcUv4a-257" style="shape=partialRectangle;html=1;whiteSpace=wrap;connectable=0;fillColor=none;top=0;left=0;bottom=0;right=0;overflow=hidden;fontSize=10;" vertex="1" parent="4OipGeuQki84CetcUv4a-256">
          <mxGeometry width="14" height="30" as="geometry">
            <mxRectangle width="14" height="30" as="alternateBounds" />
          </mxGeometry>
        </mxCell>
        <mxCell id="4OipGeuQki84CetcUv4a-258" value="LLBLT2" style="shape=partialRectangle;html=1;whiteSpace=wrap;connectable=0;fillColor=none;top=0;left=0;bottom=0;right=0;align=left;spacingLeft=6;overflow=hidden;fontSize=10;" vertex="1" parent="4OipGeuQki84CetcUv4a-256">
          <mxGeometry x="14" width="62" height="30" as="geometry">
            <mxRectangle width="62" height="30" as="alternateBounds" />
          </mxGeometry>
        </mxCell>
        <mxCell id="4OipGeuQki84CetcUv4a-259" style="shape=partialRectangle;html=1;whiteSpace=wrap;connectable=0;fillColor=none;top=0;left=0;bottom=0;right=0;align=left;spacingLeft=6;overflow=hidden;" vertex="1" parent="4OipGeuQki84CetcUv4a-256">
          <mxGeometry x="76" width="44" height="30" as="geometry">
            <mxRectangle width="44" height="30" as="alternateBounds" />
          </mxGeometry>
        </mxCell>
        <mxCell id="4OipGeuQki84CetcUv4a-260" style="shape=tableRow;horizontal=0;startSize=0;swimlaneHead=0;swimlaneBody=0;top=0;left=0;bottom=0;right=0;collapsible=0;dropTarget=0;fillColor=none;points=[[0,0.5],[1,0.5]];portConstraint=eastwest;" vertex="1" parent="4OipGeuQki84CetcUv4a-239">
          <mxGeometry y="181" width="120" height="30" as="geometry" />
        </mxCell>
        <mxCell id="4OipGeuQki84CetcUv4a-261" style="shape=partialRectangle;html=1;whiteSpace=wrap;connectable=0;fillColor=none;top=0;left=0;bottom=0;right=0;overflow=hidden;fontSize=10;" vertex="1" parent="4OipGeuQki84CetcUv4a-260">
          <mxGeometry width="14" height="30" as="geometry">
            <mxRectangle width="14" height="30" as="alternateBounds" />
          </mxGeometry>
        </mxCell>
        <mxCell id="4OipGeuQki84CetcUv4a-262" value="LLBLT3" style="shape=partialRectangle;html=1;whiteSpace=wrap;connectable=0;fillColor=none;top=0;left=0;bottom=0;right=0;align=left;spacingLeft=6;overflow=hidden;fontSize=10;" vertex="1" parent="4OipGeuQki84CetcUv4a-260">
          <mxGeometry x="14" width="62" height="30" as="geometry">
            <mxRectangle width="62" height="30" as="alternateBounds" />
          </mxGeometry>
        </mxCell>
        <mxCell id="4OipGeuQki84CetcUv4a-263" style="shape=partialRectangle;html=1;whiteSpace=wrap;connectable=0;fillColor=none;top=0;left=0;bottom=0;right=0;align=left;spacingLeft=6;overflow=hidden;" vertex="1" parent="4OipGeuQki84CetcUv4a-260">
          <mxGeometry x="76" width="44" height="30" as="geometry">
            <mxRectangle width="44" height="30" as="alternateBounds" />
          </mxGeometry>
        </mxCell>
        <mxCell id="4OipGeuQki84CetcUv4a-264" style="shape=tableRow;horizontal=0;startSize=0;swimlaneHead=0;swimlaneBody=0;top=0;left=0;bottom=0;right=0;collapsible=0;dropTarget=0;fillColor=none;points=[[0,0.5],[1,0.5]];portConstraint=eastwest;" vertex="1" parent="4OipGeuQki84CetcUv4a-239">
          <mxGeometry y="211" width="120" height="30" as="geometry" />
        </mxCell>
        <mxCell id="4OipGeuQki84CetcUv4a-265" style="shape=partialRectangle;html=1;whiteSpace=wrap;connectable=0;fillColor=none;top=0;left=0;bottom=0;right=0;overflow=hidden;fontSize=10;" vertex="1" parent="4OipGeuQki84CetcUv4a-264">
          <mxGeometry width="14" height="30" as="geometry">
            <mxRectangle width="14" height="30" as="alternateBounds" />
          </mxGeometry>
        </mxCell>
        <mxCell id="4OipGeuQki84CetcUv4a-266" value="LLBLT4" style="shape=partialRectangle;html=1;whiteSpace=wrap;connectable=0;fillColor=none;top=0;left=0;bottom=0;right=0;align=left;spacingLeft=6;overflow=hidden;fontSize=10;" vertex="1" parent="4OipGeuQki84CetcUv4a-264">
          <mxGeometry x="14" width="62" height="30" as="geometry">
            <mxRectangle width="62" height="30" as="alternateBounds" />
          </mxGeometry>
        </mxCell>
        <mxCell id="4OipGeuQki84CetcUv4a-267" style="shape=partialRectangle;html=1;whiteSpace=wrap;connectable=0;fillColor=none;top=0;left=0;bottom=0;right=0;align=left;spacingLeft=6;overflow=hidden;" vertex="1" parent="4OipGeuQki84CetcUv4a-264">
          <mxGeometry x="76" width="44" height="30" as="geometry">
            <mxRectangle width="44" height="30" as="alternateBounds" />
          </mxGeometry>
        </mxCell>
        <mxCell id="4OipGeuQki84CetcUv4a-276" value="MS150M" style="shape=table;startSize=30;container=1;collapsible=0;childLayout=tableLayout;fixedRows=1;rowLines=0;fontStyle=1;fillColor=#FFFFFF;fontSize=10;" vertex="1" parent="1">
          <mxGeometry x="630" y="20" width="120" height="181" as="geometry" />
        </mxCell>
        <mxCell id="4OipGeuQki84CetcUv4a-277" value="" style="shape=tableRow;horizontal=0;startSize=0;swimlaneHead=0;swimlaneBody=0;top=0;left=0;bottom=0;right=0;collapsible=0;dropTarget=0;fillColor=none;points=[[0,0.5],[1,0.5]];portConstraint=eastwest;" vertex="1" parent="4OipGeuQki84CetcUv4a-276">
          <mxGeometry y="30" width="120" height="30" as="geometry" />
        </mxCell>
        <mxCell id="4OipGeuQki84CetcUv4a-278" value="" style="shape=partialRectangle;html=1;whiteSpace=wrap;connectable=0;fillColor=none;top=0;left=0;bottom=0;right=0;overflow=hidden;pointerEvents=1;fontSize=10;" vertex="1" parent="4OipGeuQki84CetcUv4a-277">
          <mxGeometry width="14" height="30" as="geometry">
            <mxRectangle width="14" height="30" as="alternateBounds" />
          </mxGeometry>
        </mxCell>
        <mxCell id="4OipGeuQki84CetcUv4a-279" value="&lt;span style=&quot;font-size: 10px&quot;&gt;FCPN&lt;/span&gt;" style="shape=partialRectangle;html=1;whiteSpace=wrap;connectable=0;fillColor=none;top=0;left=0;bottom=0;right=0;align=left;spacingLeft=6;overflow=hidden;fontSize=10;" vertex="1" parent="4OipGeuQki84CetcUv4a-277">
          <mxGeometry x="14" width="62" height="30" as="geometry">
            <mxRectangle width="62" height="30" as="alternateBounds" />
          </mxGeometry>
        </mxCell>
        <mxCell id="4OipGeuQki84CetcUv4a-280" style="shape=partialRectangle;html=1;whiteSpace=wrap;connectable=0;fillColor=none;top=0;left=0;bottom=0;right=0;align=left;spacingLeft=6;overflow=hidden;" vertex="1" parent="4OipGeuQki84CetcUv4a-277">
          <mxGeometry x="76" width="44" height="30" as="geometry">
            <mxRectangle width="44" height="30" as="alternateBounds" />
          </mxGeometry>
        </mxCell>
        <mxCell id="4OipGeuQki84CetcUv4a-281" value="" style="shape=tableRow;horizontal=0;startSize=0;swimlaneHead=0;swimlaneBody=0;top=0;left=0;bottom=0;right=0;collapsible=0;dropTarget=0;fillColor=none;points=[[0,0.5],[1,0.5]];portConstraint=eastwest;" vertex="1" parent="4OipGeuQki84CetcUv4a-276">
          <mxGeometry y="60" width="120" height="31" as="geometry" />
        </mxCell>
        <mxCell id="4OipGeuQki84CetcUv4a-282" value="" style="shape=partialRectangle;html=1;whiteSpace=wrap;connectable=0;fillColor=none;top=0;left=0;bottom=0;right=0;overflow=hidden;fontSize=10;" vertex="1" parent="4OipGeuQki84CetcUv4a-281">
          <mxGeometry width="14" height="31" as="geometry">
            <mxRectangle width="14" height="31" as="alternateBounds" />
          </mxGeometry>
        </mxCell>
        <mxCell id="4OipGeuQki84CetcUv4a-283" value="FCWHSE" style="shape=partialRectangle;html=1;whiteSpace=wrap;connectable=0;fillColor=none;top=0;left=0;bottom=0;right=0;align=left;spacingLeft=6;overflow=hidden;fontSize=10;" vertex="1" parent="4OipGeuQki84CetcUv4a-281">
          <mxGeometry x="14" width="62" height="31" as="geometry">
            <mxRectangle width="62" height="31" as="alternateBounds" />
          </mxGeometry>
        </mxCell>
        <mxCell id="4OipGeuQki84CetcUv4a-284" style="shape=partialRectangle;html=1;whiteSpace=wrap;connectable=0;fillColor=none;top=0;left=0;bottom=0;right=0;align=left;spacingLeft=6;overflow=hidden;" vertex="1" parent="4OipGeuQki84CetcUv4a-281">
          <mxGeometry x="76" width="44" height="31" as="geometry">
            <mxRectangle width="44" height="31" as="alternateBounds" />
          </mxGeometry>
        </mxCell>
        <mxCell id="4OipGeuQki84CetcUv4a-285" value="" style="shape=tableRow;horizontal=0;startSize=0;swimlaneHead=0;swimlaneBody=0;top=0;left=0;bottom=0;right=0;collapsible=0;dropTarget=0;fillColor=none;points=[[0,0.5],[1,0.5]];portConstraint=eastwest;" vertex="1" parent="4OipGeuQki84CetcUv4a-276">
          <mxGeometry y="91" width="120" height="30" as="geometry" />
        </mxCell>
        <mxCell id="4OipGeuQki84CetcUv4a-286" value="" style="shape=partialRectangle;html=1;whiteSpace=wrap;connectable=0;fillColor=none;top=0;left=0;bottom=0;right=0;overflow=hidden;fontSize=10;" vertex="1" parent="4OipGeuQki84CetcUv4a-285">
          <mxGeometry width="14" height="30" as="geometry">
            <mxRectangle width="14" height="30" as="alternateBounds" />
          </mxGeometry>
        </mxCell>
        <mxCell id="4OipGeuQki84CetcUv4a-287" value="FCDTYP" style="shape=partialRectangle;html=1;whiteSpace=wrap;connectable=0;fillColor=none;top=0;left=0;bottom=0;right=0;align=left;spacingLeft=6;overflow=hidden;fontSize=10;" vertex="1" parent="4OipGeuQki84CetcUv4a-285">
          <mxGeometry x="14" width="62" height="30" as="geometry">
            <mxRectangle width="62" height="30" as="alternateBounds" />
          </mxGeometry>
        </mxCell>
        <mxCell id="4OipGeuQki84CetcUv4a-288" style="shape=partialRectangle;html=1;whiteSpace=wrap;connectable=0;fillColor=none;top=0;left=0;bottom=0;right=0;align=left;spacingLeft=6;overflow=hidden;" vertex="1" parent="4OipGeuQki84CetcUv4a-285">
          <mxGeometry x="76" width="44" height="30" as="geometry">
            <mxRectangle width="44" height="30" as="alternateBounds" />
          </mxGeometry>
        </mxCell>
        <mxCell id="4OipGeuQki84CetcUv4a-289" style="shape=tableRow;horizontal=0;startSize=0;swimlaneHead=0;swimlaneBody=0;top=0;left=0;bottom=0;right=0;collapsible=0;dropTarget=0;fillColor=none;points=[[0,0.5],[1,0.5]];portConstraint=eastwest;" vertex="1" parent="4OipGeuQki84CetcUv4a-276">
          <mxGeometry y="121" width="120" height="30" as="geometry" />
        </mxCell>
        <mxCell id="4OipGeuQki84CetcUv4a-290" style="shape=partialRectangle;html=1;whiteSpace=wrap;connectable=0;fillColor=none;top=0;left=0;bottom=0;right=0;overflow=hidden;fontSize=10;" vertex="1" parent="4OipGeuQki84CetcUv4a-289">
          <mxGeometry width="14" height="30" as="geometry">
            <mxRectangle width="14" height="30" as="alternateBounds" />
          </mxGeometry>
        </mxCell>
        <mxCell id="4OipGeuQki84CetcUv4a-291" value="FCSTDT" style="shape=partialRectangle;html=1;whiteSpace=wrap;connectable=0;fillColor=none;top=0;left=0;bottom=0;right=0;align=left;spacingLeft=6;overflow=hidden;fontSize=10;" vertex="1" parent="4OipGeuQki84CetcUv4a-289">
          <mxGeometry x="14" width="62" height="30" as="geometry">
            <mxRectangle width="62" height="30" as="alternateBounds" />
          </mxGeometry>
        </mxCell>
        <mxCell id="4OipGeuQki84CetcUv4a-292" style="shape=partialRectangle;html=1;whiteSpace=wrap;connectable=0;fillColor=none;top=0;left=0;bottom=0;right=0;align=left;spacingLeft=6;overflow=hidden;" vertex="1" parent="4OipGeuQki84CetcUv4a-289">
          <mxGeometry x="76" width="44" height="30" as="geometry">
            <mxRectangle width="44" height="30" as="alternateBounds" />
          </mxGeometry>
        </mxCell>
        <mxCell id="4OipGeuQki84CetcUv4a-293" style="shape=tableRow;horizontal=0;startSize=0;swimlaneHead=0;swimlaneBody=0;top=0;left=0;bottom=0;right=0;collapsible=0;dropTarget=0;fillColor=none;points=[[0,0.5],[1,0.5]];portConstraint=eastwest;" vertex="1" parent="4OipGeuQki84CetcUv4a-276">
          <mxGeometry y="151" width="120" height="30" as="geometry" />
        </mxCell>
        <mxCell id="4OipGeuQki84CetcUv4a-294" style="shape=partialRectangle;html=1;whiteSpace=wrap;connectable=0;fillColor=none;top=0;left=0;bottom=0;right=0;overflow=hidden;fontSize=10;" vertex="1" parent="4OipGeuQki84CetcUv4a-293">
          <mxGeometry width="14" height="30" as="geometry">
            <mxRectangle width="14" height="30" as="alternateBounds" />
          </mxGeometry>
        </mxCell>
        <mxCell id="4OipGeuQki84CetcUv4a-295" value="FCQTY" style="shape=partialRectangle;html=1;whiteSpace=wrap;connectable=0;fillColor=none;top=0;left=0;bottom=0;right=0;align=left;spacingLeft=6;overflow=hidden;fontSize=10;" vertex="1" parent="4OipGeuQki84CetcUv4a-293">
          <mxGeometry x="14" width="62" height="30" as="geometry">
            <mxRectangle width="62" height="30" as="alternateBounds" />
          </mxGeometry>
        </mxCell>
        <mxCell id="4OipGeuQki84CetcUv4a-296" style="shape=partialRectangle;html=1;whiteSpace=wrap;connectable=0;fillColor=none;top=0;left=0;bottom=0;right=0;align=left;spacingLeft=6;overflow=hidden;" vertex="1" parent="4OipGeuQki84CetcUv4a-293">
          <mxGeometry x="76" width="44" height="30" as="geometry">
            <mxRectangle width="44" height="30" as="alternateBounds" />
          </mxGeometry>
        </mxCell>
        <mxCell id="4OipGeuQki84CetcUv4a-305" value="REFERPM" style="shape=table;startSize=30;container=1;collapsible=0;childLayout=tableLayout;fixedRows=1;rowLines=0;fontStyle=1;fillColor=#FFFFFF;fontSize=10;" vertex="1" parent="1">
          <mxGeometry x="80" y="820" width="120" height="121" as="geometry" />
        </mxCell>
        <mxCell id="4OipGeuQki84CetcUv4a-306" value="" style="shape=tableRow;horizontal=0;startSize=0;swimlaneHead=0;swimlaneBody=0;top=0;left=0;bottom=0;right=0;collapsible=0;dropTarget=0;fillColor=none;points=[[0,0.5],[1,0.5]];portConstraint=eastwest;" vertex="1" parent="4OipGeuQki84CetcUv4a-305">
          <mxGeometry y="30" width="120" height="30" as="geometry" />
        </mxCell>
        <mxCell id="4OipGeuQki84CetcUv4a-307" value="" style="shape=partialRectangle;html=1;whiteSpace=wrap;connectable=0;fillColor=none;top=0;left=0;bottom=0;right=0;overflow=hidden;pointerEvents=1;fontSize=10;" vertex="1" parent="4OipGeuQki84CetcUv4a-306">
          <mxGeometry width="14" height="30" as="geometry">
            <mxRectangle width="14" height="30" as="alternateBounds" />
          </mxGeometry>
        </mxCell>
        <mxCell id="4OipGeuQki84CetcUv4a-308" value="&lt;span style=&quot;font-size: 10px&quot;&gt;REFCAT&lt;/span&gt;" style="shape=partialRectangle;html=1;whiteSpace=wrap;connectable=0;fillColor=none;top=0;left=0;bottom=0;right=0;align=left;spacingLeft=6;overflow=hidden;fontSize=10;" vertex="1" parent="4OipGeuQki84CetcUv4a-306">
          <mxGeometry x="14" width="62" height="30" as="geometry">
            <mxRectangle width="62" height="30" as="alternateBounds" />
          </mxGeometry>
        </mxCell>
        <mxCell id="4OipGeuQki84CetcUv4a-309" style="shape=partialRectangle;html=1;whiteSpace=wrap;connectable=0;fillColor=none;top=0;left=0;bottom=0;right=0;align=left;spacingLeft=6;overflow=hidden;" vertex="1" parent="4OipGeuQki84CetcUv4a-306">
          <mxGeometry x="76" width="44" height="30" as="geometry">
            <mxRectangle width="44" height="30" as="alternateBounds" />
          </mxGeometry>
        </mxCell>
        <mxCell id="4OipGeuQki84CetcUv4a-310" value="" style="shape=tableRow;horizontal=0;startSize=0;swimlaneHead=0;swimlaneBody=0;top=0;left=0;bottom=0;right=0;collapsible=0;dropTarget=0;fillColor=none;points=[[0,0.5],[1,0.5]];portConstraint=eastwest;" vertex="1" parent="4OipGeuQki84CetcUv4a-305">
          <mxGeometry y="60" width="120" height="31" as="geometry" />
        </mxCell>
        <mxCell id="4OipGeuQki84CetcUv4a-311" value="" style="shape=partialRectangle;html=1;whiteSpace=wrap;connectable=0;fillColor=none;top=0;left=0;bottom=0;right=0;overflow=hidden;fontSize=10;" vertex="1" parent="4OipGeuQki84CetcUv4a-310">
          <mxGeometry width="14" height="31" as="geometry">
            <mxRectangle width="14" height="31" as="alternateBounds" />
          </mxGeometry>
        </mxCell>
        <mxCell id="4OipGeuQki84CetcUv4a-312" value="&lt;span style=&quot;font-size: 10px&quot;&gt;REFKEY&lt;/span&gt;" style="shape=partialRectangle;html=1;whiteSpace=wrap;connectable=0;fillColor=none;top=0;left=0;bottom=0;right=0;align=left;spacingLeft=6;overflow=hidden;fontSize=10;" vertex="1" parent="4OipGeuQki84CetcUv4a-310">
          <mxGeometry x="14" width="62" height="31" as="geometry">
            <mxRectangle width="62" height="31" as="alternateBounds" />
          </mxGeometry>
        </mxCell>
        <mxCell id="4OipGeuQki84CetcUv4a-313" style="shape=partialRectangle;html=1;whiteSpace=wrap;connectable=0;fillColor=none;top=0;left=0;bottom=0;right=0;align=left;spacingLeft=6;overflow=hidden;" vertex="1" parent="4OipGeuQki84CetcUv4a-310">
          <mxGeometry x="76" width="44" height="31" as="geometry">
            <mxRectangle width="44" height="31" as="alternateBounds" />
          </mxGeometry>
        </mxCell>
        <mxCell id="4OipGeuQki84CetcUv4a-314" value="" style="shape=tableRow;horizontal=0;startSize=0;swimlaneHead=0;swimlaneBody=0;top=0;left=0;bottom=0;right=0;collapsible=0;dropTarget=0;fillColor=none;points=[[0,0.5],[1,0.5]];portConstraint=eastwest;" vertex="1" parent="4OipGeuQki84CetcUv4a-305">
          <mxGeometry y="91" width="120" height="30" as="geometry" />
        </mxCell>
        <mxCell id="4OipGeuQki84CetcUv4a-315" value="" style="shape=partialRectangle;html=1;whiteSpace=wrap;connectable=0;fillColor=none;top=0;left=0;bottom=0;right=0;overflow=hidden;fontSize=10;" vertex="1" parent="4OipGeuQki84CetcUv4a-314">
          <mxGeometry width="14" height="30" as="geometry">
            <mxRectangle width="14" height="30" as="alternateBounds" />
          </mxGeometry>
        </mxCell>
        <mxCell id="4OipGeuQki84CetcUv4a-316" value="&lt;span style=&quot;font-size: 10px&quot;&gt;REFDAT&lt;/span&gt;" style="shape=partialRectangle;html=1;whiteSpace=wrap;connectable=0;fillColor=none;top=0;left=0;bottom=0;right=0;align=left;spacingLeft=6;overflow=hidden;fontSize=10;" vertex="1" parent="4OipGeuQki84CetcUv4a-314">
          <mxGeometry x="14" width="62" height="30" as="geometry">
            <mxRectangle width="62" height="30" as="alternateBounds" />
          </mxGeometry>
        </mxCell>
        <mxCell id="4OipGeuQki84CetcUv4a-317" style="shape=partialRectangle;html=1;whiteSpace=wrap;connectable=0;fillColor=none;top=0;left=0;bottom=0;right=0;align=left;spacingLeft=6;overflow=hidden;" vertex="1" parent="4OipGeuQki84CetcUv4a-314">
          <mxGeometry x="76" width="44" height="30" as="geometry">
            <mxRectangle width="44" height="30" as="alternateBounds" />
          </mxGeometry>
        </mxCell>
        <mxCell id="4OipGeuQki84CetcUv4a-340" value="USUARIOS" style="shape=table;startSize=30;container=1;collapsible=0;childLayout=tableLayout;fixedRows=1;rowLines=0;fontStyle=1;fillColor=#FFFFFF;fontSize=10;" vertex="1" parent="1">
          <mxGeometry x="390" y="520" width="130" height="511" as="geometry" />
        </mxCell>
        <mxCell id="4OipGeuQki84CetcUv4a-341" value="" style="shape=tableRow;horizontal=0;startSize=0;swimlaneHead=0;swimlaneBody=0;top=0;left=0;bottom=0;right=0;collapsible=0;dropTarget=0;fillColor=none;points=[[0,0.5],[1,0.5]];portConstraint=eastwest;fontSize=10;" vertex="1" parent="4OipGeuQki84CetcUv4a-340">
          <mxGeometry y="30" width="130" height="30" as="geometry" />
        </mxCell>
        <mxCell id="4OipGeuQki84CetcUv4a-342" value="" style="shape=partialRectangle;html=1;whiteSpace=wrap;connectable=0;fillColor=none;top=0;left=0;bottom=0;right=0;overflow=hidden;pointerEvents=1;fontSize=10;" vertex="1" parent="4OipGeuQki84CetcUv4a-341">
          <mxGeometry width="16" height="30" as="geometry">
            <mxRectangle width="16" height="30" as="alternateBounds" />
          </mxGeometry>
        </mxCell>
        <mxCell id="4OipGeuQki84CetcUv4a-343" value="&lt;span style=&quot;font-size: 10px&quot;&gt;usuario&lt;/span&gt;" style="shape=partialRectangle;html=1;whiteSpace=wrap;connectable=0;fillColor=none;top=0;left=0;bottom=0;right=0;align=left;spacingLeft=6;overflow=hidden;fontSize=10;" vertex="1" parent="4OipGeuQki84CetcUv4a-341">
          <mxGeometry x="16" width="66" height="30" as="geometry">
            <mxRectangle width="66" height="30" as="alternateBounds" />
          </mxGeometry>
        </mxCell>
        <mxCell id="4OipGeuQki84CetcUv4a-344" style="shape=partialRectangle;html=1;whiteSpace=wrap;connectable=0;fillColor=none;top=0;left=0;bottom=0;right=0;align=left;spacingLeft=6;overflow=hidden;fontSize=10;" vertex="1" parent="4OipGeuQki84CetcUv4a-341">
          <mxGeometry x="82" width="48" height="30" as="geometry">
            <mxRectangle width="48" height="30" as="alternateBounds" />
          </mxGeometry>
        </mxCell>
        <mxCell id="4OipGeuQki84CetcUv4a-345" value="" style="shape=tableRow;horizontal=0;startSize=0;swimlaneHead=0;swimlaneBody=0;top=0;left=0;bottom=0;right=0;collapsible=0;dropTarget=0;fillColor=none;points=[[0,0.5],[1,0.5]];portConstraint=eastwest;fontSize=10;" vertex="1" parent="4OipGeuQki84CetcUv4a-340">
          <mxGeometry y="60" width="130" height="31" as="geometry" />
        </mxCell>
        <mxCell id="4OipGeuQki84CetcUv4a-346" value="" style="shape=partialRectangle;html=1;whiteSpace=wrap;connectable=0;fillColor=none;top=0;left=0;bottom=0;right=0;overflow=hidden;fontSize=10;" vertex="1" parent="4OipGeuQki84CetcUv4a-345">
          <mxGeometry width="16" height="31" as="geometry">
            <mxRectangle width="16" height="31" as="alternateBounds" />
          </mxGeometry>
        </mxCell>
        <mxCell id="4OipGeuQki84CetcUv4a-347" value="&lt;span style=&quot;font-size: 10px&quot;&gt;pass&lt;/span&gt;" style="shape=partialRectangle;html=1;whiteSpace=wrap;connectable=0;fillColor=none;top=0;left=0;bottom=0;right=0;align=left;spacingLeft=6;overflow=hidden;fontSize=10;" vertex="1" parent="4OipGeuQki84CetcUv4a-345">
          <mxGeometry x="16" width="66" height="31" as="geometry">
            <mxRectangle width="66" height="31" as="alternateBounds" />
          </mxGeometry>
        </mxCell>
        <mxCell id="4OipGeuQki84CetcUv4a-348" style="shape=partialRectangle;html=1;whiteSpace=wrap;connectable=0;fillColor=none;top=0;left=0;bottom=0;right=0;align=left;spacingLeft=6;overflow=hidden;fontSize=10;" vertex="1" parent="4OipGeuQki84CetcUv4a-345">
          <mxGeometry x="82" width="48" height="31" as="geometry">
            <mxRectangle width="48" height="31" as="alternateBounds" />
          </mxGeometry>
        </mxCell>
        <mxCell id="4OipGeuQki84CetcUv4a-349" value="" style="shape=tableRow;horizontal=0;startSize=0;swimlaneHead=0;swimlaneBody=0;top=0;left=0;bottom=0;right=0;collapsible=0;dropTarget=0;fillColor=none;points=[[0,0.5],[1,0.5]];portConstraint=eastwest;fontSize=10;" vertex="1" parent="4OipGeuQki84CetcUv4a-340">
          <mxGeometry y="91" width="130" height="30" as="geometry" />
        </mxCell>
        <mxCell id="4OipGeuQki84CetcUv4a-350" value="" style="shape=partialRectangle;html=1;whiteSpace=wrap;connectable=0;fillColor=none;top=0;left=0;bottom=0;right=0;overflow=hidden;fontSize=10;" vertex="1" parent="4OipGeuQki84CetcUv4a-349">
          <mxGeometry width="16" height="30" as="geometry">
            <mxRectangle width="16" height="30" as="alternateBounds" />
          </mxGeometry>
        </mxCell>
        <mxCell id="4OipGeuQki84CetcUv4a-351" value="&lt;span style=&quot;font-size: 10px&quot;&gt;correo&lt;/span&gt;" style="shape=partialRectangle;html=1;whiteSpace=wrap;connectable=0;fillColor=none;top=0;left=0;bottom=0;right=0;align=left;spacingLeft=6;overflow=hidden;fontSize=10;" vertex="1" parent="4OipGeuQki84CetcUv4a-349">
          <mxGeometry x="16" width="66" height="30" as="geometry">
            <mxRectangle width="66" height="30" as="alternateBounds" />
          </mxGeometry>
        </mxCell>
        <mxCell id="4OipGeuQki84CetcUv4a-352" style="shape=partialRectangle;html=1;whiteSpace=wrap;connectable=0;fillColor=none;top=0;left=0;bottom=0;right=0;align=left;spacingLeft=6;overflow=hidden;fontSize=10;" vertex="1" parent="4OipGeuQki84CetcUv4a-349">
          <mxGeometry x="82" width="48" height="30" as="geometry">
            <mxRectangle width="48" height="30" as="alternateBounds" />
          </mxGeometry>
        </mxCell>
        <mxCell id="4OipGeuQki84CetcUv4a-353" style="shape=tableRow;horizontal=0;startSize=0;swimlaneHead=0;swimlaneBody=0;top=0;left=0;bottom=0;right=0;collapsible=0;dropTarget=0;fillColor=none;points=[[0,0.5],[1,0.5]];portConstraint=eastwest;fontSize=10;" vertex="1" parent="4OipGeuQki84CetcUv4a-340">
          <mxGeometry y="121" width="130" height="30" as="geometry" />
        </mxCell>
        <mxCell id="4OipGeuQki84CetcUv4a-354" style="shape=partialRectangle;html=1;whiteSpace=wrap;connectable=0;fillColor=none;top=0;left=0;bottom=0;right=0;overflow=hidden;fontSize=10;" vertex="1" parent="4OipGeuQki84CetcUv4a-353">
          <mxGeometry width="16" height="30" as="geometry">
            <mxRectangle width="16" height="30" as="alternateBounds" />
          </mxGeometry>
        </mxCell>
        <mxCell id="4OipGeuQki84CetcUv4a-355" value="nombre" style="shape=partialRectangle;html=1;whiteSpace=wrap;connectable=0;fillColor=none;top=0;left=0;bottom=0;right=0;align=left;spacingLeft=6;overflow=hidden;fontSize=10;" vertex="1" parent="4OipGeuQki84CetcUv4a-353">
          <mxGeometry x="16" width="66" height="30" as="geometry">
            <mxRectangle width="66" height="30" as="alternateBounds" />
          </mxGeometry>
        </mxCell>
        <mxCell id="4OipGeuQki84CetcUv4a-356" style="shape=partialRectangle;html=1;whiteSpace=wrap;connectable=0;fillColor=none;top=0;left=0;bottom=0;right=0;align=left;spacingLeft=6;overflow=hidden;fontSize=10;" vertex="1" parent="4OipGeuQki84CetcUv4a-353">
          <mxGeometry x="82" width="48" height="30" as="geometry">
            <mxRectangle width="48" height="30" as="alternateBounds" />
          </mxGeometry>
        </mxCell>
        <mxCell id="4OipGeuQki84CetcUv4a-357" style="shape=tableRow;horizontal=0;startSize=0;swimlaneHead=0;swimlaneBody=0;top=0;left=0;bottom=0;right=0;collapsible=0;dropTarget=0;fillColor=none;points=[[0,0.5],[1,0.5]];portConstraint=eastwest;fontSize=10;" vertex="1" parent="4OipGeuQki84CetcUv4a-340">
          <mxGeometry y="151" width="130" height="30" as="geometry" />
        </mxCell>
        <mxCell id="4OipGeuQki84CetcUv4a-358" style="shape=partialRectangle;html=1;whiteSpace=wrap;connectable=0;fillColor=none;top=0;left=0;bottom=0;right=0;overflow=hidden;fontSize=10;" vertex="1" parent="4OipGeuQki84CetcUv4a-357">
          <mxGeometry width="16" height="30" as="geometry">
            <mxRectangle width="16" height="30" as="alternateBounds" />
          </mxGeometry>
        </mxCell>
        <mxCell id="4OipGeuQki84CetcUv4a-359" value="sexo" style="shape=partialRectangle;html=1;whiteSpace=wrap;connectable=0;fillColor=none;top=0;left=0;bottom=0;right=0;align=left;spacingLeft=6;overflow=hidden;fontSize=10;" vertex="1" parent="4OipGeuQki84CetcUv4a-357">
          <mxGeometry x="16" width="66" height="30" as="geometry">
            <mxRectangle width="66" height="30" as="alternateBounds" />
          </mxGeometry>
        </mxCell>
        <mxCell id="4OipGeuQki84CetcUv4a-360" style="shape=partialRectangle;html=1;whiteSpace=wrap;connectable=0;fillColor=none;top=0;left=0;bottom=0;right=0;align=left;spacingLeft=6;overflow=hidden;fontSize=10;" vertex="1" parent="4OipGeuQki84CetcUv4a-357">
          <mxGeometry x="82" width="48" height="30" as="geometry">
            <mxRectangle width="48" height="30" as="alternateBounds" />
          </mxGeometry>
        </mxCell>
        <mxCell id="4OipGeuQki84CetcUv4a-361" style="shape=tableRow;horizontal=0;startSize=0;swimlaneHead=0;swimlaneBody=0;top=0;left=0;bottom=0;right=0;collapsible=0;dropTarget=0;fillColor=none;points=[[0,0.5],[1,0.5]];portConstraint=eastwest;fontSize=10;" vertex="1" parent="4OipGeuQki84CetcUv4a-340">
          <mxGeometry y="181" width="130" height="30" as="geometry" />
        </mxCell>
        <mxCell id="4OipGeuQki84CetcUv4a-362" style="shape=partialRectangle;html=1;whiteSpace=wrap;connectable=0;fillColor=none;top=0;left=0;bottom=0;right=0;overflow=hidden;fontSize=10;" vertex="1" parent="4OipGeuQki84CetcUv4a-361">
          <mxGeometry width="16" height="30" as="geometry">
            <mxRectangle width="16" height="30" as="alternateBounds" />
          </mxGeometry>
        </mxCell>
        <mxCell id="4OipGeuQki84CetcUv4a-363" value="planning" style="shape=partialRectangle;html=1;whiteSpace=wrap;connectable=0;fillColor=none;top=0;left=0;bottom=0;right=0;align=left;spacingLeft=6;overflow=hidden;fontSize=10;" vertex="1" parent="4OipGeuQki84CetcUv4a-361">
          <mxGeometry x="16" width="66" height="30" as="geometry">
            <mxRectangle width="66" height="30" as="alternateBounds" />
          </mxGeometry>
        </mxCell>
        <mxCell id="4OipGeuQki84CetcUv4a-364" style="shape=partialRectangle;html=1;whiteSpace=wrap;connectable=0;fillColor=none;top=0;left=0;bottom=0;right=0;align=left;spacingLeft=6;overflow=hidden;fontSize=10;" vertex="1" parent="4OipGeuQki84CetcUv4a-361">
          <mxGeometry x="82" width="48" height="30" as="geometry">
            <mxRectangle width="48" height="30" as="alternateBounds" />
          </mxGeometry>
        </mxCell>
        <mxCell id="4OipGeuQki84CetcUv4a-365" style="shape=tableRow;horizontal=0;startSize=0;swimlaneHead=0;swimlaneBody=0;top=0;left=0;bottom=0;right=0;collapsible=0;dropTarget=0;fillColor=none;points=[[0,0.5],[1,0.5]];portConstraint=eastwest;fontSize=10;" vertex="1" parent="4OipGeuQki84CetcUv4a-340">
          <mxGeometry y="211" width="130" height="30" as="geometry" />
        </mxCell>
        <mxCell id="4OipGeuQki84CetcUv4a-366" style="shape=partialRectangle;html=1;whiteSpace=wrap;connectable=0;fillColor=none;top=0;left=0;bottom=0;right=0;overflow=hidden;fontSize=10;" vertex="1" parent="4OipGeuQki84CetcUv4a-365">
          <mxGeometry width="16" height="30" as="geometry">
            <mxRectangle width="16" height="30" as="alternateBounds" />
          </mxGeometry>
        </mxCell>
        <mxCell id="4OipGeuQki84CetcUv4a-367" value="envasado" style="shape=partialRectangle;html=1;whiteSpace=wrap;connectable=0;fillColor=none;top=0;left=0;bottom=0;right=0;align=left;spacingLeft=6;overflow=hidden;fontSize=10;" vertex="1" parent="4OipGeuQki84CetcUv4a-365">
          <mxGeometry x="16" width="66" height="30" as="geometry">
            <mxRectangle width="66" height="30" as="alternateBounds" />
          </mxGeometry>
        </mxCell>
        <mxCell id="4OipGeuQki84CetcUv4a-368" style="shape=partialRectangle;html=1;whiteSpace=wrap;connectable=0;fillColor=none;top=0;left=0;bottom=0;right=0;align=left;spacingLeft=6;overflow=hidden;fontSize=10;" vertex="1" parent="4OipGeuQki84CetcUv4a-365">
          <mxGeometry x="82" width="48" height="30" as="geometry">
            <mxRectangle width="48" height="30" as="alternateBounds" />
          </mxGeometry>
        </mxCell>
        <mxCell id="4OipGeuQki84CetcUv4a-369" style="shape=tableRow;horizontal=0;startSize=0;swimlaneHead=0;swimlaneBody=0;top=0;left=0;bottom=0;right=0;collapsible=0;dropTarget=0;fillColor=none;points=[[0,0.5],[1,0.5]];portConstraint=eastwest;fontSize=10;" vertex="1" parent="4OipGeuQki84CetcUv4a-340">
          <mxGeometry y="241" width="130" height="30" as="geometry" />
        </mxCell>
        <mxCell id="4OipGeuQki84CetcUv4a-370" style="shape=partialRectangle;html=1;whiteSpace=wrap;connectable=0;fillColor=none;top=0;left=0;bottom=0;right=0;overflow=hidden;fontSize=10;" vertex="1" parent="4OipGeuQki84CetcUv4a-369">
          <mxGeometry width="16" height="30" as="geometry">
            <mxRectangle width="16" height="30" as="alternateBounds" />
          </mxGeometry>
        </mxCell>
        <mxCell id="4OipGeuQki84CetcUv4a-371" value="deposito" style="shape=partialRectangle;html=1;whiteSpace=wrap;connectable=0;fillColor=none;top=0;left=0;bottom=0;right=0;align=left;spacingLeft=6;overflow=hidden;fontSize=10;" vertex="1" parent="4OipGeuQki84CetcUv4a-369">
          <mxGeometry x="16" width="66" height="30" as="geometry">
            <mxRectangle width="66" height="30" as="alternateBounds" />
          </mxGeometry>
        </mxCell>
        <mxCell id="4OipGeuQki84CetcUv4a-372" style="shape=partialRectangle;html=1;whiteSpace=wrap;connectable=0;fillColor=none;top=0;left=0;bottom=0;right=0;align=left;spacingLeft=6;overflow=hidden;fontSize=10;" vertex="1" parent="4OipGeuQki84CetcUv4a-369">
          <mxGeometry x="82" width="48" height="30" as="geometry">
            <mxRectangle width="48" height="30" as="alternateBounds" />
          </mxGeometry>
        </mxCell>
        <mxCell id="4OipGeuQki84CetcUv4a-373" style="shape=tableRow;horizontal=0;startSize=0;swimlaneHead=0;swimlaneBody=0;top=0;left=0;bottom=0;right=0;collapsible=0;dropTarget=0;fillColor=none;points=[[0,0.5],[1,0.5]];portConstraint=eastwest;fontSize=10;" vertex="1" parent="4OipGeuQki84CetcUv4a-340">
          <mxGeometry y="271" width="130" height="30" as="geometry" />
        </mxCell>
        <mxCell id="4OipGeuQki84CetcUv4a-374" style="shape=partialRectangle;html=1;whiteSpace=wrap;connectable=0;fillColor=none;top=0;left=0;bottom=0;right=0;overflow=hidden;fontSize=10;" vertex="1" parent="4OipGeuQki84CetcUv4a-373">
          <mxGeometry width="16" height="30" as="geometry">
            <mxRectangle width="16" height="30" as="alternateBounds" />
          </mxGeometry>
        </mxCell>
        <mxCell id="4OipGeuQki84CetcUv4a-375" value="calidadct" style="shape=partialRectangle;html=1;whiteSpace=wrap;connectable=0;fillColor=none;top=0;left=0;bottom=0;right=0;align=left;spacingLeft=6;overflow=hidden;fontSize=10;" vertex="1" parent="4OipGeuQki84CetcUv4a-373">
          <mxGeometry x="16" width="66" height="30" as="geometry">
            <mxRectangle width="66" height="30" as="alternateBounds" />
          </mxGeometry>
        </mxCell>
        <mxCell id="4OipGeuQki84CetcUv4a-376" style="shape=partialRectangle;html=1;whiteSpace=wrap;connectable=0;fillColor=none;top=0;left=0;bottom=0;right=0;align=left;spacingLeft=6;overflow=hidden;fontSize=10;" vertex="1" parent="4OipGeuQki84CetcUv4a-373">
          <mxGeometry x="82" width="48" height="30" as="geometry">
            <mxRectangle width="48" height="30" as="alternateBounds" />
          </mxGeometry>
        </mxCell>
        <mxCell id="4OipGeuQki84CetcUv4a-377" style="shape=tableRow;horizontal=0;startSize=0;swimlaneHead=0;swimlaneBody=0;top=0;left=0;bottom=0;right=0;collapsible=0;dropTarget=0;fillColor=none;points=[[0,0.5],[1,0.5]];portConstraint=eastwest;fontSize=10;" vertex="1" parent="4OipGeuQki84CetcUv4a-340">
          <mxGeometry y="301" width="130" height="30" as="geometry" />
        </mxCell>
        <mxCell id="4OipGeuQki84CetcUv4a-378" style="shape=partialRectangle;html=1;whiteSpace=wrap;connectable=0;fillColor=none;top=0;left=0;bottom=0;right=0;overflow=hidden;fontSize=10;" vertex="1" parent="4OipGeuQki84CetcUv4a-377">
          <mxGeometry width="16" height="30" as="geometry">
            <mxRectangle width="16" height="30" as="alternateBounds" />
          </mxGeometry>
        </mxCell>
        <mxCell id="4OipGeuQki84CetcUv4a-379" value="calidadri" style="shape=partialRectangle;html=1;whiteSpace=wrap;connectable=0;fillColor=none;top=0;left=0;bottom=0;right=0;align=left;spacingLeft=6;overflow=hidden;fontSize=10;" vertex="1" parent="4OipGeuQki84CetcUv4a-377">
          <mxGeometry x="16" width="66" height="30" as="geometry">
            <mxRectangle width="66" height="30" as="alternateBounds" />
          </mxGeometry>
        </mxCell>
        <mxCell id="4OipGeuQki84CetcUv4a-380" style="shape=partialRectangle;html=1;whiteSpace=wrap;connectable=0;fillColor=none;top=0;left=0;bottom=0;right=0;align=left;spacingLeft=6;overflow=hidden;fontSize=10;" vertex="1" parent="4OipGeuQki84CetcUv4a-377">
          <mxGeometry x="82" width="48" height="30" as="geometry">
            <mxRectangle width="48" height="30" as="alternateBounds" />
          </mxGeometry>
        </mxCell>
        <mxCell id="4OipGeuQki84CetcUv4a-381" style="shape=tableRow;horizontal=0;startSize=0;swimlaneHead=0;swimlaneBody=0;top=0;left=0;bottom=0;right=0;collapsible=0;dropTarget=0;fillColor=none;points=[[0,0.5],[1,0.5]];portConstraint=eastwest;fontSize=10;" vertex="1" parent="4OipGeuQki84CetcUv4a-340">
          <mxGeometry y="331" width="130" height="30" as="geometry" />
        </mxCell>
        <mxCell id="4OipGeuQki84CetcUv4a-382" style="shape=partialRectangle;html=1;whiteSpace=wrap;connectable=0;fillColor=none;top=0;left=0;bottom=0;right=0;overflow=hidden;fontSize=10;" vertex="1" parent="4OipGeuQki84CetcUv4a-381">
          <mxGeometry width="16" height="30" as="geometry">
            <mxRectangle width="16" height="30" as="alternateBounds" />
          </mxGeometry>
        </mxCell>
        <mxCell id="4OipGeuQki84CetcUv4a-383" value="&lt;span style=&quot;font-size: 10px&quot;&gt;procesos&lt;/span&gt;" style="shape=partialRectangle;html=1;whiteSpace=wrap;connectable=0;fillColor=none;top=0;left=0;bottom=0;right=0;align=left;spacingLeft=6;overflow=hidden;fontSize=10;" vertex="1" parent="4OipGeuQki84CetcUv4a-381">
          <mxGeometry x="16" width="66" height="30" as="geometry">
            <mxRectangle width="66" height="30" as="alternateBounds" />
          </mxGeometry>
        </mxCell>
        <mxCell id="4OipGeuQki84CetcUv4a-384" style="shape=partialRectangle;html=1;whiteSpace=wrap;connectable=0;fillColor=none;top=0;left=0;bottom=0;right=0;align=left;spacingLeft=6;overflow=hidden;fontSize=10;" vertex="1" parent="4OipGeuQki84CetcUv4a-381">
          <mxGeometry x="82" width="48" height="30" as="geometry">
            <mxRectangle width="48" height="30" as="alternateBounds" />
          </mxGeometry>
        </mxCell>
        <mxCell id="4OipGeuQki84CetcUv4a-386" style="shape=tableRow;horizontal=0;startSize=0;swimlaneHead=0;swimlaneBody=0;top=0;left=0;bottom=0;right=0;collapsible=0;dropTarget=0;fillColor=none;points=[[0,0.5],[1,0.5]];portConstraint=eastwest;fontSize=10;" vertex="1" parent="4OipGeuQki84CetcUv4a-340">
          <mxGeometry y="361" width="130" height="30" as="geometry" />
        </mxCell>
        <mxCell id="4OipGeuQki84CetcUv4a-387" style="shape=partialRectangle;html=1;whiteSpace=wrap;connectable=0;fillColor=none;top=0;left=0;bottom=0;right=0;overflow=hidden;fontSize=10;" vertex="1" parent="4OipGeuQki84CetcUv4a-386">
          <mxGeometry width="16" height="30" as="geometry">
            <mxRectangle width="16" height="30" as="alternateBounds" />
          </mxGeometry>
        </mxCell>
        <mxCell id="4OipGeuQki84CetcUv4a-388" value="&lt;span style=&quot;font-size: 10px&quot;&gt;img&lt;/span&gt;" style="shape=partialRectangle;html=1;whiteSpace=wrap;connectable=0;fillColor=none;top=0;left=0;bottom=0;right=0;align=left;spacingLeft=6;overflow=hidden;fontSize=10;" vertex="1" parent="4OipGeuQki84CetcUv4a-386">
          <mxGeometry x="16" width="66" height="30" as="geometry">
            <mxRectangle width="66" height="30" as="alternateBounds" />
          </mxGeometry>
        </mxCell>
        <mxCell id="4OipGeuQki84CetcUv4a-389" style="shape=partialRectangle;html=1;whiteSpace=wrap;connectable=0;fillColor=none;top=0;left=0;bottom=0;right=0;align=left;spacingLeft=6;overflow=hidden;fontSize=10;" vertex="1" parent="4OipGeuQki84CetcUv4a-386">
          <mxGeometry x="82" width="48" height="30" as="geometry">
            <mxRectangle width="48" height="30" as="alternateBounds" />
          </mxGeometry>
        </mxCell>
        <mxCell id="4OipGeuQki84CetcUv4a-390" style="shape=tableRow;horizontal=0;startSize=0;swimlaneHead=0;swimlaneBody=0;top=0;left=0;bottom=0;right=0;collapsible=0;dropTarget=0;fillColor=none;points=[[0,0.5],[1,0.5]];portConstraint=eastwest;fontSize=10;" vertex="1" parent="4OipGeuQki84CetcUv4a-340">
          <mxGeometry y="391" width="130" height="30" as="geometry" />
        </mxCell>
        <mxCell id="4OipGeuQki84CetcUv4a-391" style="shape=partialRectangle;html=1;whiteSpace=wrap;connectable=0;fillColor=none;top=0;left=0;bottom=0;right=0;overflow=hidden;fontSize=10;" vertex="1" parent="4OipGeuQki84CetcUv4a-390">
          <mxGeometry width="16" height="30" as="geometry">
            <mxRectangle width="16" height="30" as="alternateBounds" />
          </mxGeometry>
        </mxCell>
        <mxCell id="4OipGeuQki84CetcUv4a-392" value="apodo" style="shape=partialRectangle;html=1;whiteSpace=wrap;connectable=0;fillColor=none;top=0;left=0;bottom=0;right=0;align=left;spacingLeft=6;overflow=hidden;fontSize=10;" vertex="1" parent="4OipGeuQki84CetcUv4a-390">
          <mxGeometry x="16" width="66" height="30" as="geometry">
            <mxRectangle width="66" height="30" as="alternateBounds" />
          </mxGeometry>
        </mxCell>
        <mxCell id="4OipGeuQki84CetcUv4a-393" style="shape=partialRectangle;html=1;whiteSpace=wrap;connectable=0;fillColor=none;top=0;left=0;bottom=0;right=0;align=left;spacingLeft=6;overflow=hidden;fontSize=10;" vertex="1" parent="4OipGeuQki84CetcUv4a-390">
          <mxGeometry x="82" width="48" height="30" as="geometry">
            <mxRectangle width="48" height="30" as="alternateBounds" />
          </mxGeometry>
        </mxCell>
        <mxCell id="4OipGeuQki84CetcUv4a-394" style="shape=tableRow;horizontal=0;startSize=0;swimlaneHead=0;swimlaneBody=0;top=0;left=0;bottom=0;right=0;collapsible=0;dropTarget=0;fillColor=none;points=[[0,0.5],[1,0.5]];portConstraint=eastwest;fontSize=10;" vertex="1" parent="4OipGeuQki84CetcUv4a-340">
          <mxGeometry y="421" width="130" height="30" as="geometry" />
        </mxCell>
        <mxCell id="4OipGeuQki84CetcUv4a-395" style="shape=partialRectangle;html=1;whiteSpace=wrap;connectable=0;fillColor=none;top=0;left=0;bottom=0;right=0;overflow=hidden;fontSize=10;" vertex="1" parent="4OipGeuQki84CetcUv4a-394">
          <mxGeometry width="16" height="30" as="geometry">
            <mxRectangle width="16" height="30" as="alternateBounds" />
          </mxGeometry>
        </mxCell>
        <mxCell id="4OipGeuQki84CetcUv4a-396" value="adm" style="shape=partialRectangle;html=1;whiteSpace=wrap;connectable=0;fillColor=none;top=0;left=0;bottom=0;right=0;align=left;spacingLeft=6;overflow=hidden;fontSize=10;" vertex="1" parent="4OipGeuQki84CetcUv4a-394">
          <mxGeometry x="16" width="66" height="30" as="geometry">
            <mxRectangle width="66" height="30" as="alternateBounds" />
          </mxGeometry>
        </mxCell>
        <mxCell id="4OipGeuQki84CetcUv4a-397" style="shape=partialRectangle;html=1;whiteSpace=wrap;connectable=0;fillColor=none;top=0;left=0;bottom=0;right=0;align=left;spacingLeft=6;overflow=hidden;fontSize=10;" vertex="1" parent="4OipGeuQki84CetcUv4a-394">
          <mxGeometry x="82" width="48" height="30" as="geometry">
            <mxRectangle width="48" height="30" as="alternateBounds" />
          </mxGeometry>
        </mxCell>
        <mxCell id="4OipGeuQki84CetcUv4a-398" style="shape=tableRow;horizontal=0;startSize=0;swimlaneHead=0;swimlaneBody=0;top=0;left=0;bottom=0;right=0;collapsible=0;dropTarget=0;fillColor=none;points=[[0,0.5],[1,0.5]];portConstraint=eastwest;fontSize=10;" vertex="1" parent="4OipGeuQki84CetcUv4a-340">
          <mxGeometry y="451" width="130" height="30" as="geometry" />
        </mxCell>
        <mxCell id="4OipGeuQki84CetcUv4a-399" style="shape=partialRectangle;html=1;whiteSpace=wrap;connectable=0;fillColor=none;top=0;left=0;bottom=0;right=0;overflow=hidden;fontSize=10;" vertex="1" parent="4OipGeuQki84CetcUv4a-398">
          <mxGeometry width="16" height="30" as="geometry">
            <mxRectangle width="16" height="30" as="alternateBounds" />
          </mxGeometry>
        </mxCell>
        <mxCell id="4OipGeuQki84CetcUv4a-400" value="inventarios" style="shape=partialRectangle;html=1;whiteSpace=wrap;connectable=0;fillColor=none;top=0;left=0;bottom=0;right=0;align=left;spacingLeft=6;overflow=hidden;fontSize=10;" vertex="1" parent="4OipGeuQki84CetcUv4a-398">
          <mxGeometry x="16" width="66" height="30" as="geometry">
            <mxRectangle width="66" height="30" as="alternateBounds" />
          </mxGeometry>
        </mxCell>
        <mxCell id="4OipGeuQki84CetcUv4a-401" style="shape=partialRectangle;html=1;whiteSpace=wrap;connectable=0;fillColor=none;top=0;left=0;bottom=0;right=0;align=left;spacingLeft=6;overflow=hidden;fontSize=10;" vertex="1" parent="4OipGeuQki84CetcUv4a-398">
          <mxGeometry x="82" width="48" height="30" as="geometry">
            <mxRectangle width="48" height="30" as="alternateBounds" />
          </mxGeometry>
        </mxCell>
        <mxCell id="4OipGeuQki84CetcUv4a-402" style="shape=tableRow;horizontal=0;startSize=0;swimlaneHead=0;swimlaneBody=0;top=0;left=0;bottom=0;right=0;collapsible=0;dropTarget=0;fillColor=none;points=[[0,0.5],[1,0.5]];portConstraint=eastwest;fontSize=10;" vertex="1" parent="4OipGeuQki84CetcUv4a-340">
          <mxGeometry y="481" width="130" height="30" as="geometry" />
        </mxCell>
        <mxCell id="4OipGeuQki84CetcUv4a-403" style="shape=partialRectangle;html=1;whiteSpace=wrap;connectable=0;fillColor=none;top=0;left=0;bottom=0;right=0;overflow=hidden;fontSize=10;" vertex="1" parent="4OipGeuQki84CetcUv4a-402">
          <mxGeometry width="16" height="30" as="geometry">
            <mxRectangle width="16" height="30" as="alternateBounds" />
          </mxGeometry>
        </mxCell>
        <mxCell id="4OipGeuQki84CetcUv4a-404" value="&lt;span style=&quot;font-size: 10px&quot;&gt;MRP&lt;/span&gt;" style="shape=partialRectangle;html=1;whiteSpace=wrap;connectable=0;fillColor=none;top=0;left=0;bottom=0;right=0;align=left;spacingLeft=6;overflow=hidden;fontSize=10;" vertex="1" parent="4OipGeuQki84CetcUv4a-402">
          <mxGeometry x="16" width="66" height="30" as="geometry">
            <mxRectangle width="66" height="30" as="alternateBounds" />
          </mxGeometry>
        </mxCell>
        <mxCell id="4OipGeuQki84CetcUv4a-405" style="shape=partialRectangle;html=1;whiteSpace=wrap;connectable=0;fillColor=none;top=0;left=0;bottom=0;right=0;align=left;spacingLeft=6;overflow=hidden;fontSize=10;" vertex="1" parent="4OipGeuQki84CetcUv4a-402">
          <mxGeometry x="82" width="48" height="30" as="geometry">
            <mxRectangle width="48" height="30" as="alternateBounds" />
          </mxGeometry>
        </mxCell>
      </root>
    </mxGraphModel>
  </diagram>
</mxfile>
